<?xml version="1.0" encoding="UTF-8"?>
<svg version="1.1" xmlns="http://www.w3.org/2000/svg" width="2000" height="1918">
<path d="M0 0 C-0.62590186 28.57241968 -6.43082481 55.28950222 -19 81 C-19.47542236 81.97960693 -19.47542236 81.97960693 -19.96044922 82.97900391 C-26.90379714 97.0996643 -35.89998039 109.95911841 -46 122 C-47.12921875 123.40572266 -47.12921875 123.40572266 -48.28125 124.83984375 C-55.25271459 133.37440508 -62.96530896 141.15365612 -70.75 148.9375 C-71.29324921 149.48165558 -71.83649841 150.02581116 -72.39620972 150.5864563 C-77.30497119 155.49429259 -82.20725655 160.38998852 -87.453125 164.94140625 C-88.38596313 165.75448242 -88.38596313 165.75448242 -89.33764648 166.58398438 C-90.75924688 167.79492318 -92.2144413 168.96623432 -93.67578125 170.12890625 C-97.47045768 174.81644772 -99.14768732 180.30901124 -101.1875 185.9375 C-101.65993674 187.21271597 -102.13301072 188.48769602 -102.60668945 189.76245117 C-107.75490782 203.71974928 -112.41382812 217.84989004 -117 232 C-116.67 232.33 -116.34 232.66 -116 233 C-115.34515625 232.27514404 -114.6903125 231.55028809 -114.015625 230.8034668 C-107.67588137 223.81788604 -101.19142418 217.00504895 -94.52050781 210.33520508 C-92.99513287 208.80762584 -91.47799328 207.27216418 -89.9609375 205.73632812 C-83.63234637 199.37211653 -77.03158816 193.5925889 -70 188 C-68.93672968 187.10208429 -67.8781422 186.19853475 -66.828125 185.28515625 C-46.91890906 168.12099887 -12.57032772 144.27009708 15 146 C13.12672171 152.27272745 10.73035151 157.87459011 7.5 163.5625 C7.06276611 164.33770996 6.62553223 165.11291992 6.17504883 165.91162109 C-7.72437149 190.15473864 -26.37981442 210.56757997 -46.04296875 230.22827148 C-48.00290082 232.19040408 -49.95465296 234.16044057 -51.90625 236.13085938 C-58.96978253 243.2257363 -66.14081577 249.78857978 -74 256 C-76.52587921 258.13744219 -79.01343272 260.31705131 -81.5 262.5 C-85.80297884 266.25414894 -90.12768285 269.9637014 -94.5625 273.5625 C-104.09350447 281.30110662 -113.50006674 289.12322241 -122 298 C-127 303 -127 303 -129.19921875 305.09375 C-130.39998047 306.25390625 -130.39998047 306.25390625 -131.625 307.4375 C-132.38039062 308.15808594 -133.13578125 308.87867188 -133.9140625 309.62109375 C-138.14390053 314.44501016 -139.59482973 319.71531159 -140.68359375 325.9140625 C-140.82410156 326.67395981 -140.96460938 327.43385712 -141.109375 328.21678162 C-141.56212267 330.68448507 -142.00053226 333.15445738 -142.4375 335.625 C-142.74538787 337.33132341 -143.05341304 339.03762206 -143.36157227 340.74389648 C-148.2272359 364.73825629 -148.2272359 364.73825629 -150 389 C-149.53327881 388.00540771 -149.53327881 388.00540771 -149.05712891 386.99072266 C-136.7582562 360.86295235 -123.62646867 335.25308762 -105 313 C-104.49936035 312.39784668 -103.9987207 311.79569336 -103.48291016 311.17529297 C-94.44404847 300.33942961 -85.12037689 290.75214848 -74 282 C-73.46697266 281.57412598 -72.93394531 281.14825195 -72.38476562 280.70947266 C-70.76551706 279.41934355 -69.13494561 278.14515399 -67.5 276.875 C-66.5203125 276.10929687 -65.540625 275.34359375 -64.53125 274.5546875 C-63.27828125 273.78511719 -63.27828125 273.78511719 -62 273 C-61.01 273.33 -60.02 273.66 -59 274 C-61.46131928 301.60193769 -66.56538086 323.58780792 -78.02490234 348.84265137 C-79.69916763 352.546869 -81.34865588 356.26208436 -83 359.9765625 C-86.93950247 368.82945638 -90.90780935 377.66926029 -94.88031006 386.50738525 C-96.37662378 389.83842674 -97.87013059 393.17072346 -99.36367798 396.50300598 C-107.75356808 415.21878332 -116.21941285 433.89721555 -124.80102539 452.52587891 C-128.22983494 459.96947079 -131.652158 467.41578492 -135.046875 474.875 C-135.37371277 475.59298264 -135.70055054 476.31096527 -136.03729248 477.05070496 C-137.62986293 480.55220111 -139.21730355 484.05590053 -140.79589844 487.5637207 C-143.49766849 493.55922218 -146.23141179 499.52653545 -149.15625 505.41796875 C-149.63070557 506.39386963 -150.10516113 507.36977051 -150.59399414 508.37524414 C-151.44119545 510.10921259 -152.31003129 511.83293107 -153.20874023 513.54077148 C-156.76239613 520.89890249 -156.44902437 527.98860607 -156 536 C-155.95821625 536.77917786 -155.9164325 537.55835571 -155.87338257 538.36114502 C-155.58063791 543.5891989 -155.21922351 548.81068535 -154.828125 554.03222656 C-154.62634573 556.73199435 -154.4336093 559.43229265 -154.2421875 562.1328125 C-153.40043971 573.78374648 -152.29524299 585.39103134 -151 597 C-149.46245608 592.64418144 -148.35457365 588.33167194 -147.40625 583.8125 C-137.52427402 537.7103577 -121.53747566 494.97618192 -89 460 C-86.97772292 457.68463929 -84.98807107 455.34490434 -83 453 C-82.34 453.33 -81.68 453.66 -81 454 C-70.73432135 510.14439062 -85.94978377 569.58263325 -101.15899658 623.31097412 C-106.89432113 643.5817829 -111.97536217 663.9127208 -116.45196533 684.49725342 C-117.02369805 687.10822346 -117.60614961 689.71662714 -118.19091797 692.32470703 C-119.1910907 696.79124077 -120.16874971 701.26216908 -121.13024902 705.73718262 C-121.49658849 707.4302086 -121.86905387 709.12192275 -122.24816895 710.81213379 C-124.21356789 719.61547403 -125.87906513 727.20961758 -123 736 C-122.70101807 737.07902588 -122.40203613 738.15805176 -122.09399414 739.26977539 C-121.01125744 743.15565182 -119.86218126 747.01618368 -118.6875 750.875 C-118.47302216 751.58231262 -118.25854431 752.28962524 -118.03756714 753.01837158 C-104.7042537 796.78688524 -86.74729955 838.78032423 -67 880 C-67.04789169 879.35980927 -67.09578339 878.71961853 -67.14512634 878.06002808 C-67.65191995 871.27695212 -68.15418641 864.49355082 -68.65405273 857.70996094 C-68.84011246 855.19262569 -69.02725162 852.67536995 -69.21557617 850.15820312 C-70.83088109 828.5518846 -72.22017212 806.98652183 -72.1875 785.3125 C-72.18689575 784.55029144 -72.1862915 783.78808289 -72.18566895 783.0027771 C-72.10575866 745.36162253 -70.4433543 681.73444756 -42.38989258 652.3112793 C-41.93122803 651.87855713 -41.47256348 651.44583496 -41 651 C-37.33251404 661.66091169 -34.06318971 672.3841837 -31.0625 683.25 C-30.84656189 684.03035614 -30.63062378 684.81071228 -30.40814209 685.61471558 C-22.6506039 713.7466006 -16.59891705 741.94491844 -14.8828125 771.14453125 C-14.83958736 771.87333811 -14.79636223 772.60214497 -14.75182724 773.35303688 C-13.56818804 794.12872574 -13.92503903 814.9247726 -14.07818604 835.72363281 C-14.3138124 869.02578565 -14.42314352 902.26296491 -12.125 935.5 C-11.99402924 937.39472549 -11.99402924 937.39472549 -11.8604126 939.32772827 C-11.38904502 945.93965402 -10.85091836 952.54221995 -10.24752808 959.14334106 C-10.00555542 961.93588632 -9.810304 964.72831983 -9.62524414 967.52514648 C-8.98488611 976.29245513 -8.18517653 983.23448353 -2.1875 990.0625 C-1.00533068 991.54723853 0.17562339 993.03294532 1.35546875 994.51953125 C1.96052246 995.25510254 2.56557617 995.99067383 3.18896484 996.74853516 C6.17337887 1000.45873551 8.87839896 1004.36259853 11.625 1008.25 C18.72196995 1018.12716007 26.18663745 1027.67977468 34 1037 C33.76925781 1035.94167969 33.53851563 1034.88335938 33.30078125 1033.79296875 C22.75746091 984.9237734 17.47202864 936.73560003 25 887 C28.26721669 888.08907223 28.65801336 888.52904855 30.53125 891.21875 C31.0061084 891.89421875 31.4809668 892.5696875 31.97021484 893.265625 C32.47504395 894.00296875 32.97987305 894.7403125 33.5 895.5 C34.03189941 896.26828125 34.56379883 897.0365625 35.11181641 897.828125 C36.75260732 900.21119006 38.37833749 902.60388649 40 905 C40.69754395 906.02287109 40.69754395 906.02287109 41.40917969 907.06640625 C59.94257505 934.38449524 74.10806234 963.89107949 85 995 C85.33596191 995.94794434 85.67192383 996.89588867 86.01806641 997.87255859 C97.03623869 1029.31544615 103.05450895 1062.4366752 109.92675781 1094.96118164 C110.17473114 1096.13212875 110.42270447 1097.30307587 110.67819214 1098.50950623 C111.14093686 1100.69687255 111.60180989 1102.88463613 112.06033325 1105.07289124 C112.69059869 1108.05242207 113.34119342 1111.02665924 114 1114 C114.23076233 1115.07811951 114.46152466 1116.15623901 114.69927979 1117.26702881 C114.94112 1118.32923645 115.18296021 1119.39144409 115.43212891 1120.48583984 C115.75040146 1121.91783218 115.75040146 1121.91783218 116.07510376 1123.37875366 C117.74261066 1128.10463119 121.22298213 1130.88104695 125 1134 C126.20846753 1135.08318364 127.41680027 1136.16651766 128.625 1137.25 C130.08090773 1138.50282433 131.53964402 1139.75236363 133 1141 C134.07714468 1141.92931468 135.15393909 1142.85903544 136.23046875 1143.7890625 C143.39809808 1149.97103113 150.63042481 1156.05901893 158 1162 C158.59490234 1162.48001465 159.18980469 1162.9600293 159.80273438 1163.45458984 C166.78549007 1169.08350994 173.77062058 1174.6886192 181 1180 C180.53851563 1179.1234375 180.07703125 1178.246875 179.6015625 1177.34375 C166.29930732 1151.65723381 156.1633246 1124.50019301 151 1096 C155.69862028 1096.6077366 159.51011885 1098.59554757 163.625 1100.8125 C164.73065308 1101.40430054 164.73065308 1101.40430054 165.85864258 1102.00805664 C203.809493 1122.6632344 240.44449191 1152.08183083 268.37890625 1185.1015625 C270.2809365 1187.32900033 272.2660772 1189.47022971 274.25 1191.625 C278.25761019 1196.06586535 281.96749581 1200.68048477 285.62963867 1205.40478516 C288.66022103 1209.31119483 291.75282773 1213.15685989 294.89550781 1216.97363281 C300.79826921 1224.14892859 306.33730679 1231.48087855 311.66064453 1239.09277344 C315.84686887 1245.05390806 320.12088218 1250.95088194 324.42578125 1256.82666016 C325.90591037 1258.87010145 327.34587216 1260.9367291 328.78125 1263.01171875 C329.66528026 1264.23797984 330.55062182 1265.46329705 331.4375 1266.6875 C332.17871094 1267.74324219 332.91992188 1268.79898437 333.68359375 1269.88671875 C341.93553064 1278.91414919 358.13284078 1283.15574399 369.25 1287.6875 C370.0929361 1288.03249542 370.93587219 1288.37749084 371.80435181 1288.73294067 C388.38275698 1295.5029829 405.13391541 1301.65339821 422.10510254 1307.36120605 C423.91374226 1307.97092142 425.72011636 1308.58734519 427.52636719 1309.20410156 C459.37310749 1320.04103173 492.06049827 1328.25877818 525 1335 C521.83203244 1331.75297443 518.60432388 1328.76986763 515.0625 1325.9375 C499.45665873 1313.27733961 484.73947389 1299.80312204 470.5 1285.625 C469.7584668 1284.88813965 469.01693359 1284.1512793 468.25292969 1283.39208984 C463.63109645 1278.75666913 459.25776085 1273.97025172 455 1269 C454.14277344 1268.02417969 453.28554688 1267.04835938 452.40234375 1266.04296875 C403 1208.81141046 403 1208.81141046 403 1190 C409.7607379 1191.98522809 416.45945418 1194.11033216 423.1328125 1196.37109375 C424.07533371 1196.68935623 425.01785492 1197.00761871 425.98893738 1197.33552551 C466.6165072 1211.08100374 505.84050352 1225.19426414 543 1247 C543.9384375 1247.54849609 544.876875 1248.09699219 545.84375 1248.66210938 C558.00218371 1255.80860447 569.82760555 1263.43404815 581.5625 1271.25 C582.18176361 1271.66211731 582.80102722 1272.07423462 583.4390564 1272.49884033 C596.0781916 1280.92661375 608.44522029 1289.69038317 620.5 1298.9375 C621.3871167 1299.61554688 622.2742334 1300.29359375 623.18823242 1300.9921875 C630.50890383 1306.59810108 637.77639375 1312.26967706 645 1318 C645.969375 1317.175 646.93875 1316.35 647.9375 1315.5 C648.90429688 1314.67822266 648.90429688 1314.67822266 649.890625 1313.83984375 C651.30080254 1312.60985556 652.68661601 1311.35138373 654.046875 1310.06640625 C669.73969118 1295.37586847 689.91432164 1289.40315796 711.13671875 1289.75 C731.21136775 1291.04906728 749.5903401 1298.79231575 763.63671875 1313.17602539 C765.33224791 1314.91475762 765.33224791 1314.91475762 768 1317 C772.48589753 1316.51636763 775.41062568 1313.47421611 778.75 1310.6875 C780.09997412 1309.58529128 781.45158916 1308.48508984 782.8046875 1307.38671875 C783.49916992 1306.82259277 784.19365234 1306.2584668 784.90917969 1305.67724609 C835.95917627 1264.72518204 893.25794746 1230.68398133 955 1209 C956.05171387 1208.63058289 957.10342773 1208.26116577 958.18701172 1207.8805542 C970.93329274 1203.40903218 983.69248312 1198.97460399 996.46484375 1194.578125 C997.4705542 1194.23083847 998.47626465 1193.88355194 999.51245117 1193.52574158 C1000.44154297 1193.20690506 1001.37063477 1192.88806854 1002.32788086 1192.55957031 C1003.54186806 1192.14206512 1003.54186806 1192.14206512 1004.78038025 1191.71612549 C1006.83987498 1191.05166183 1008.89436838 1190.49623944 1011 1190 C1010.4206892 1195.00760181 1008.13494876 1198.8195624 1005.6875 1203.125 C1005.2430957 1203.91269775 1004.79869141 1204.70039551 1004.34082031 1205.51196289 C989.28142178 1231.92861427 971.30000614 1256.3725919 950.41894531 1278.47949219 C948.15390859 1280.90665129 945.96167045 1283.3992495 943.75 1285.875 C936.91079096 1293.34765242 929.46542955 1300.1620354 922 1307 C921.05640625 1307.87011719 920.1128125 1308.74023438 919.140625 1309.63671875 C909.23034103 1318.67906384 898.66471289 1326.87854138 888 1335 C943.00259997 1325.14520059 996.94616023 1307.89619166 1048.41546631 1286.30548096 C1052.49409392 1284.60161461 1056.60053182 1282.99935629 1060.73828125 1281.4453125 C1072.45819356 1276.93249383 1080.03172816 1272.74903869 1086.72363281 1261.99951172 C1088.62341505 1259.02338001 1090.72537717 1256.20495015 1092.81469727 1253.36010742 C1094.49318193 1251.07179522 1096.1498532 1248.76919087 1097.80078125 1246.4609375 C1118.53224194 1217.51794787 1140.79487194 1190.2044401 1165.89859009 1164.92617798 C1166.99092402 1163.82579023 1168.08177453 1162.72392753 1169.17098999 1161.62045288 C1176.11148103 1154.59881156 1183.25283419 1148.14250469 1191 1142 C1192.02772674 1141.1368221 1193.05114707 1140.26843315 1194.06640625 1139.390625 C1211.53279368 1124.41162607 1230.92452789 1111.92000286 1251 1100.75 C1252.28269775 1100.03239502 1252.28269775 1100.03239502 1253.59130859 1099.30029297 C1254.78361084 1098.64891357 1254.78361084 1098.64891357 1256 1097.984375 C1256.70125 1097.59991211 1257.4025 1097.21544922 1258.125 1096.81933594 C1260 1096 1260 1096 1263 1096 C1259.99191745 1125.29462215 1247.11491352 1153.01095339 1234 1179 C1239.40727152 1175.51092514 1244.53309417 1171.92659516 1249.375 1167.6875 C1250.49802579 1166.72057299 1251.62173408 1165.75443813 1252.74609375 1164.7890625 C1253.29507324 1164.31629883 1253.84405273 1163.84353516 1254.40966797 1163.35644531 C1256.72039573 1161.38555132 1259.07759282 1159.47405957 1261.4375 1157.5625 C1271.39673263 1149.44167223 1281.08032095 1141.04287867 1290.4765625 1132.27734375 C1293 1130 1293 1130 1295.05187988 1128.6914978 C1297.57285031 1126.50261021 1297.91875229 1124.88672762 1298.69335938 1121.65869141 C1298.96281372 1120.56317963 1299.23226807 1119.46766785 1299.5098877 1118.33895874 C1299.92264954 1116.5508226 1299.92264954 1116.5508226 1300.34375 1114.7265625 C1300.64244995 1113.48186188 1300.9411499 1112.23716125 1301.24890137 1110.95474243 C1304.92438631 1095.53752866 1308.10103002 1080.00628112 1311.30224609 1064.48535156 C1316.0306501 1041.62229658 1321.3313608 1018.95095395 1328.8125 996.8125 C1329.23063965 995.56839355 1329.6487793 994.32428711 1330.07958984 993.04248047 C1335.73583062 976.43960047 1342.90454213 960.46951424 1351.00244141 944.92138672 C1352.03941375 942.9240856 1353.05701313 940.91758716 1354.07421875 938.91015625 C1361.60715931 924.19500255 1370.44291822 910.37216353 1380.0625 896.9375 C1380.61067383 896.16929932 1381.15884766 895.40109863 1381.72363281 894.60961914 C1382.23893555 893.90184326 1382.75423828 893.19406738 1383.28515625 892.46484375 C1383.73769775 891.842146 1384.19023926 891.21944824 1384.65649414 890.57788086 C1386 889 1386 889 1389 887 C1396.48278982 894.48278982 1393.37049233 926.41283079 1393.375 936.9375 C1393.29859356 968.6768863 1389.02904823 999.91296663 1381.69921875 1030.7890625 C1380.89361246 1033.94085273 1380.89361246 1033.94085273 1381 1037 C1381.51216064 1036.32964722 1381.51216064 1036.32964722 1382.03466797 1035.64575195 C1383.06076106 1034.30289344 1384.08697671 1032.96012856 1385.11328125 1031.61743164 C1386.30104297 1030.06343242 1387.48853721 1028.50922874 1388.67578125 1026.95483398 C1391.3176093 1023.4980872 1393.96044 1020.04258766 1396.6328125 1016.609375 C1401.45457122 1010.40315091 1406.14226338 1004.11639973 1410.75 997.75 C1411.28109375 997.01724854 1411.8121875 996.28449707 1412.359375 995.52954102 C1413.37002871 994.12583776 1414.37234802 992.71607967 1415.36450195 991.29924011 C1416.40100792 989.84208392 1417.4648393 988.40367872 1418.56420898 986.99334717 C1422.96485044 981.06488916 1424.01873206 976.25248562 1424.390625 968.96875 C1424.46617615 967.90233276 1424.54172729 966.83591553 1424.61956787 965.73718262 C1424.85467633 962.32591414 1425.05265741 958.91363789 1425.25 955.5 C1425.39607799 953.33447496 1425.54450251 951.16910689 1425.6953125 949.00390625 C1426.09970136 943.03834599 1426.44265364 937.07059475 1426.76977539 931.1003418 C1426.92583684 928.27557409 1427.09359094 925.45178727 1427.26928711 922.62817383 C1429.17418129 891.9092618 1429.17668843 861.26821099 1429 830.5 C1428.95210641 822.0877727 1428.91167371 813.67562382 1428.88812256 805.26329041 C1428.87550466 801.97525661 1428.85054307 798.68748804 1428.82470703 795.39953613 C1428.72904967 775.85167446 1429.82956897 756.33286526 1433.25 737.0625 C1433.57967773 735.16963257 1433.57967773 735.16963257 1433.91601562 733.23852539 C1438.90737917 705.25701166 1446.95925114 678.22556806 1455 651 C1455.66 651 1456.32 651 1457 651 C1468.90778204 673.6754573 1477.133977 696.78478083 1481.75 722 C1481.94875732 723.07765625 1482.14751465 724.1553125 1482.35229492 725.265625 C1485.76665134 745.02879221 1486.39832047 764.73180255 1486.375 784.75 C1486.3764502 786.02795441 1486.37790039 787.30590881 1486.37939453 788.62258911 C1486.37617915 814.60748215 1484.80897676 840.38133061 1482.60977173 866.27519226 C1482.48969254 867.6992614 1482.48969254 867.6992614 1482.3671875 869.15209961 C1482.29612793 869.97262314 1482.22506836 870.79314667 1482.15185547 871.63853455 C1481.9936448 874.09882802 1481.97425473 876.53531812 1482 879 C1503.97398341 834.77031545 1522.14496032 788.59254758 1536.25 741.25 C1536.5377832 740.29891357 1536.82556641 739.34782715 1537.12207031 738.36791992 C1537.37569336 737.4885376 1537.62931641 736.60915527 1537.890625 735.703125 C1538.10750977 734.95708008 1538.32439453 734.21103516 1538.54785156 733.44238281 C1539.77615105 726.80744324 1538.53193854 720.64144436 1537.19921875 714.14453125 C1537.00733475 713.18654633 1536.81545074 712.2285614 1536.61775208 711.24154663 C1535.98345482 708.09659652 1535.33682255 704.95438045 1534.6875 701.8125 C1534.35395508 700.18690659 1534.35395508 700.18690659 1534.01367188 698.5284729 C1527.86839368 668.67829837 1520.38555878 639.21958721 1512.12075806 609.89215088 C1506.538666 590.05975762 1501.75129753 570.11773378 1498.1875 549.8125 C1497.99244873 548.70398682 1497.79739746 547.59547363 1497.59643555 546.45336914 C1494.7488818 529.42959503 1493.67057573 512.70797599 1493.73925781 495.45556641 C1493.75003445 492.23971925 1493.73926364 489.02442474 1493.7265625 485.80859375 C1493.72015747 474.70356135 1494.06657386 463.95314538 1496 453 C1519.83434296 472.27031984 1536.45012968 501.643705 1547 530 C1547.47614746 531.25031006 1547.47614746 531.25031006 1547.96191406 532.52587891 C1555.88239414 553.61700833 1560.68815698 575.9204368 1565 598 C1566.96776244 583.5395093 1568.65709101 569.09156516 1569.5234375 554.51953125 C1569.7844829 550.26524792 1570.26708333 546.15072979 1570.9765625 541.94921875 C1573.90789964 521.36211084 1564.49992629 505.60823507 1555.42285156 487.81787109 C1552.16297336 481.3947476 1549.21096389 474.84047954 1546.27581787 468.26431274 C1544.77082705 464.89901296 1543.24381253 461.5437389 1541.71875 458.1875 C1541.4168576 457.52196609 1541.11496521 456.85643219 1540.80392456 456.17073059 C1537.52053826 448.93423769 1534.20857917 441.71085591 1530.89910889 434.48626709 C1523.85825927 419.11171025 1516.89117299 403.70574344 1510.00762939 388.26000977 C1508.87944683 385.72961156 1507.75006848 383.1997488 1506.62060547 380.66992188 C1504.41636042 375.73208676 1502.2147007 370.79310479 1500.01452637 365.85345459 C1499.14589586 363.90385013 1498.27669604 361.95449919 1497.40686035 360.00543213 C1493.0478631 350.23536101 1488.72258216 340.45218658 1484.5390625 330.60546875 C1484.21415329 329.84688568 1483.88924408 329.08830261 1483.55448914 328.30673218 C1476.40952598 311.35441965 1473.47316464 291.36021233 1474 273 C1485.20955406 276.92639552 1494.55292811 286.90660298 1503 295 C1503.75047607 295.70962891 1503.75047607 295.70962891 1504.51611328 296.43359375 C1531.58932374 322.12312036 1549.72902213 356.37107261 1565 390 C1563.68491237 379.44053845 1562.26742594 368.89901185 1560.76074219 358.36523438 C1560.25565567 354.83235549 1559.77046011 351.2976479 1559.30175781 347.75976562 C1556.72145608 322.50348339 1556.72145608 322.50348339 1542.4921875 302.6328125 C1541.89631836 302.19098633 1541.30044922 301.74916016 1540.68652344 301.29394531 C1538.12538256 299.32897041 1536.01209616 296.97920036 1533.8125 294.625 C1529.67063043 290.52380345 1525.26960326 286.85169137 1520.71875 283.21484375 C1518.06498647 281.05294156 1515.52750859 278.80755136 1513 276.5 C1508.75779806 272.63859414 1504.37708978 268.99480866 1499.921875 265.3828125 C1491.94428154 258.87702104 1484.118012 252.20278294 1476.51171875 245.265625 C1475.12060711 244.01081201 1473.7228845 242.76283051 1472.29956055 241.54467773 C1466.40417984 236.48649322 1460.91673693 231.06520261 1455.4375 225.5625 C1454.53064453 224.65951172 1453.62378906 223.75652344 1452.68945312 222.82617188 C1447.58272968 217.71204201 1442.69124575 212.4957629 1438 207 C1437.13117188 206.02417969 1436.26234375 205.04835938 1435.3671875 204.04296875 C1420.22376358 186.69211783 1408.20354746 167.07792831 1399 146 C1406.54708227 146.41332696 1413.23494912 148.00559937 1420.375 150.4375 C1421.41865723 150.79166992 1422.46231445 151.14583984 1423.53759766 151.51074219 C1452.77176577 161.75758695 1476.61518084 180.04270662 1499 201 C1500.57881243 202.44514852 1502.16244197 203.88488994 1503.74633789 205.32446289 C1510.64742194 211.60590167 1517.19577453 217.99433221 1523.2890625 225.06640625 C1525.74190028 227.83844894 1528.35110994 230.41571701 1531 233 C1528.89488826 223.38070973 1525.78716861 214.20604821 1522.49414062 204.94580078 C1521.62733364 202.50656697 1520.77008175 200.0641315 1519.9140625 197.62109375 C1518.55381427 193.75317384 1517.16245276 189.897737 1515.74777222 186.04940796 C1515.07055798 184.19337719 1514.41590183 182.32915391 1513.76391602 180.46411133 C1511.04853178 173.19580886 1507.53926153 168.72608799 1501.6875 163.6875 C1500.96626953 163.03716797 1500.24503906 162.38683594 1499.50195312 161.71679688 C1497.35368262 159.78817017 1495.18248412 157.88976924 1493 156 C1483.67493457 147.9211267 1474.98019113 139.42502574 1467 130 C1466.19175781 129.08089844 1465.38351562 128.16179687 1464.55078125 127.21484375 C1435.78059564 94.28460951 1414.5050591 50.97891232 1414.9375 6.4375 C1414.94652344 5.21933594 1414.95554687 4.00117188 1414.96484375 2.74609375 C1414.97644531 1.83988281 1414.98804688 0.93367188 1415 0 C1455.1429966 16.9646079 1483.48104174 56.96696005 1499.625 95.875 C1504.60235654 108.15713312 1508.4079908 120.67912126 1512.02734375 133.41015625 C1515.4759418 145.24156464 1520.78232826 156.21424645 1525.9375 167.375 C1530.46632475 177.18348913 1534.95156909 186.98077389 1539 197 C1539.01458252 196.22213135 1539.02916504 195.4442627 1539.04418945 194.64282227 C1539.94750697 151.15271229 1545.81151652 109.81506536 1569 72 C1572 73 1572 73 1573.08740234 75.07519531 C1573.58167725 76.43789551 1573.58167725 76.43789551 1574.0859375 77.828125 C1574.45702637 78.84487305 1574.82811523 79.86162109 1575.21044922 80.90917969 C1575.59475098 82.01165039 1575.97905273 83.11412109 1576.375 84.25 C1576.77348145 85.38083008 1577.17196289 86.51166016 1577.58251953 87.67675781 C1585.18107478 109.7326864 1589.29836723 132.67750905 1590 156 C1590.02723145 156.71414063 1590.05446289 157.42828125 1590.08251953 158.1640625 C1590.52189703 171.03036218 1589.69783648 183.79918518 1588.7421875 196.62109375 C1588.67714146 197.50485561 1588.61209541 198.38861748 1588.54507828 199.29916 C1587.07087907 219.2160342 1585.14477767 239.08326476 1583.14379883 258.95300293 C1582.42151705 266.13285122 1581.7073754 273.31350794 1580.99551773 280.49439621 C1580.75140137 282.94651043 1580.50398279 285.39827294 1580.256073 287.8500061 C1579.81603091 292.23145623 1579.39778153 296.61451467 1579 301 C1578.93622602 301.69467314 1578.87245205 302.38934628 1578.80674553 303.10507011 C1577.87702537 313.47175949 1577.87702537 313.47175949 1579.36328125 323.67578125 C1579.82831055 325.56586914 1579.82831055 325.56586914 1580.30273438 327.49414062 C1580.80256836 329.38422852 1580.80256836 329.38422852 1581.3125 331.3125 C1581.95561791 333.87079469 1582.59756991 336.42938279 1583.23828125 338.98828125 C1583.69581787 340.77806396 1583.69581787 340.77806396 1584.16259766 342.60400391 C1585.25714682 347.04283156 1586.17184815 351.5046 1587 356 C1588.82944103 348.88337862 1590.5108936 341.75278787 1592.0402832 334.56591797 C1599.83527803 298.14637211 1612.09868315 263.67096125 1630 231 C1632.64 231 1635.28 231 1638 231 C1638.77663897 233.84085099 1639.22009918 236.56337603 1639.48071289 239.49536133 C1639.56072037 240.38181839 1639.64072784 241.26827545 1639.72315979 242.18159485 C1639.80549362 243.13873886 1639.88782745 244.09588287 1639.97265625 245.08203125 C1640.1037101 246.58983406 1640.1037101 246.58983406 1640.2374115 248.12809753 C1640.42161381 250.26728612 1640.60389883 252.40664053 1640.78442383 254.54614258 C1641.05593888 257.73543133 1641.34114983 260.92329295 1641.62695312 264.11132812 C1643.54439408 286.18519349 1643.45596205 307.09587432 1640 329 C1639.7761261 330.45376038 1639.7761261 330.45376038 1639.54772949 331.93688965 C1638.38978133 339.42766521 1637.1449847 346.90249264 1635.875 354.375 C1635.67046204 355.58468445 1635.46592407 356.7943689 1635.25518799 358.04071045 C1629.8715823 389.7489042 1623.75868735 421.3236205 1617.66824532 452.9021244 C1617.14945491 455.59627895 1616.63328688 458.29092648 1616.11741638 460.98564148 C1614.40137228 469.9231108 1612.62632726 478.84320729 1610.74682617 487.74780273 C1606.44258744 508.3030778 1603.76327458 527.75395153 1603.5625 548.8125 C1603.51440568 551.29889493 1603.4629622 553.78522729 1603.40820312 556.27148438 C1603.30587327 561.00720664 1603.21854518 565.74281684 1603.14111328 570.47900391 C1602.97579137 579.33034911 1602.51957968 588.16332034 1602 597 C1602.8818396 595.38919556 1602.8818396 595.38919556 1603.78149414 593.74584961 C1609.04929076 584.14815233 1614.75416384 574.98926652 1621 566 C1621.40863281 565.40977051 1621.81726562 564.81954102 1622.23828125 564.21142578 C1630.41170516 552.45402036 1639.01064882 541.0042188 1648.734375 530.4765625 C1650.62408173 528.41091756 1652.46199622 526.31643357 1654.29296875 524.19921875 C1668.55460496 507.86974049 1686.3461274 489.95186107 1707 482 C1707.27508813 490.33322528 1706.59557562 498.02452066 1704.9375 506.1875 C1704.71344482 507.30825928 1704.48938965 508.42901855 1704.25854492 509.58374023 C1696.27648558 548.26436104 1680.22841078 582.31879857 1659.84130859 615.95605469 C1657.77454932 619.37270208 1655.72401097 622.79878876 1653.67578125 626.2265625 C1643.52454617 643.20558921 1633.26844164 660.11965228 1622.94451904 676.9942627 C1613.7184769 692.08158633 1604.69856161 707.26657206 1595.9296875 722.62597656 C1594.22835355 725.60072798 1592.52022287 728.57136996 1590.80821228 731.53997803 C1589.3646079 734.04395904 1587.92400628 736.54966 1586.48391724 739.05566406 C1585.47544764 740.80902297 1584.46421773 742.56079337 1583.45288086 744.3125 C1576.71784063 756.06214616 1571.27600688 767.16604148 1567.625 780.25 C1567.09326172 782.10044922 1567.09326172 782.10044922 1566.55078125 783.98828125 C1565.69000483 786.98936662 1564.83997267 789.99303903 1564 793 C1564.47308594 792.52167725 1564.94617187 792.04335449 1565.43359375 791.55053711 C1567.61964406 789.3434466 1569.80979129 787.14046367 1572 784.9375 C1572.74378906 784.18533203 1573.48757813 783.43316406 1574.25390625 782.65820312 C1579.00175048 777.88971609 1583.8805094 773.36542007 1589 769 C1590.00934974 768.1226663 1591.0184824 767.24508276 1592.02734375 766.3671875 C1612.50858784 748.82754491 1634.47021577 733.50304891 1657.91015625 720.1796875 C1658.64500244 719.76187012 1659.37984863 719.34405273 1660.13696289 718.91357422 C1662 718 1662 718 1664 718 C1658.67856746 740.51026436 1650.39747604 761.90845327 1641 783 C1640.64583008 783.80614746 1640.29166016 784.61229492 1639.92675781 785.44287109 C1628.93164595 810.37059485 1614.0815024 833.80844327 1597 855 C1596.26523438 855.92683594 1595.53046875 856.85367188 1594.7734375 857.80859375 C1584.70801808 870.34590946 1573.45408645 881.70829782 1562.08325195 893.04711914 C1559.80238023 895.32259584 1557.52695025 897.60341717 1555.25195312 899.88476562 C1553.77896659 901.35709181 1552.30567014 902.829108 1550.83203125 904.30078125 C1550.16412064 904.97071609 1549.49621002 905.64065094 1548.80805969 906.33088684 C1544.89753618 910.2222874 1540.87897861 913.93020869 1536.69438171 917.52580261 C1534.6986181 919.26221742 1532.83711067 921.09727823 1531 923 C1528.53037945 925.55782128 1525.95733987 927.92956836 1523.2734375 930.2578125 C1518.94619111 934.01636941 1514.77951384 937.92744533 1510.625 941.875 C1509.22245752 943.20689202 1507.81880023 944.53761101 1506.4140625 945.8671875 C1505.70378906 946.54386475 1504.99351563 947.22054199 1504.26171875 947.91772461 C1502.70793308 949.34823389 1501.11359541 950.73554005 1499.48828125 952.08422852 C1492.81197601 957.69108388 1488.84256283 963.53814879 1484.75 971.1875 C1483.46098532 973.50624763 1482.16850005 975.82269397 1480.87109375 978.13671875 C1480.54852097 978.71594086 1480.22594818 979.29516296 1479.89360046 979.89193726 C1474.69325521 989.19077323 1468.83172314 998.08912704 1463 1007 C1462.21713623 1008.19810303 1462.21713623 1008.19810303 1461.41845703 1009.42041016 C1450.78594434 1025.64401262 1439.53105288 1041.4058399 1428 1057 C1434.91238112 1053.27941058 1441.59050524 1049.2180024 1448.27212524 1045.10064697 C1484.94487423 1022.5557859 1523.35778111 1003.31495691 1565.375 993.125 C1566.2613916 992.9094043 1567.1477832 992.69380859 1568.06103516 992.47167969 C1576.40142341 990.52650308 1576.40142341 990.52650308 1580 991 C1582.875 993.25 1582.875 993.25 1585 996 C1584.73776444 999.79844232 1582.57397494 1002.04562971 1580.1875 1004.875 C1578.97126953 1006.32519531 1578.97126953 1006.32519531 1577.73046875 1007.8046875 C1576.821582 1008.87087518 1575.91137191 1009.93593584 1575 1011 C1574.51998535 1011.56106445 1574.0399707 1012.12212891 1573.54541016 1012.70019531 C1571.5162767 1015.06939589 1569.48537692 1017.43702388 1567.44848633 1019.79956055 C1564.36393747 1023.38274133 1561.34549465 1027.00849514 1558.375 1030.6875 C1554.52478646 1035.43051668 1550.47310344 1039.95171381 1546.3359375 1044.4453125 C1544.34799121 1046.61942099 1542.41466662 1048.82422776 1540.5 1051.0625 C1533.89093085 1058.62895768 1526.74597024 1065.39922544 1518.8984375 1071.6640625 C1516.3607209 1073.70928424 1513.87984918 1075.80657605 1511.41235352 1077.93554688 C1462.44607594 1120.07957335 1403.1024772 1148.95231122 1346.06982422 1178.41064453 C1341.37234124 1180.84269592 1336.68663005 1183.29712138 1332 1185.75 C1325.09467946 1189.36195649 1318.17439504 1192.94388898 1311.2421875 1196.50390625 C1310.47191223 1196.89953766 1309.70163696 1197.29516907 1308.90802002 1197.70278931 C1305.07908284 1199.66888334 1301.24918783 1201.633083 1297.41796875 1203.59472656 C1293.27291034 1205.71880585 1289.13454739 1207.85554155 1285 1210 C1284.37140076 1210.32473297 1283.74280151 1210.64946594 1283.09515381 1210.98403931 C1281.3253201 1211.90144954 1279.56096937 1212.82941391 1277.796875 1213.7578125 C1276.8078418 1214.27617676 1275.81880859 1214.79454102 1274.79980469 1215.32861328 C1270.6126987 1217.82817097 1267.07288709 1220.957115 1263.3984375 1224.14453125 C1241.94657211 1242.50872621 1217.26928195 1258.04106756 1193.34350586 1272.97900391 C1192.57659424 1273.45901855 1191.80968262 1273.9390332 1191.01953125 1274.43359375 C1190.33995361 1274.85697021 1189.66037598 1275.28034668 1188.96020508 1275.71655273 C1186.90425889 1277.06268664 1184.95958808 1278.5181295 1183 1280 C1183.71883865 1279.85267929 1184.43767731 1279.70535858 1185.17829895 1279.55357361 C1252.91119815 1265.68809883 1320.47341234 1252.89394493 1389.875 1252.8125 C1391.04748291 1252.81073257 1391.04748291 1252.81073257 1392.24365234 1252.80892944 C1394.45160075 1252.80931041 1396.65928434 1252.81845212 1398.8671875 1252.83203125 C1400.12644043 1252.83952393 1401.38569336 1252.8470166 1402.68310547 1252.85473633 C1405.58264903 1252.98172208 1408.18376541 1253.32891011 1411 1254 C1361.99929757 1303.96840032 1287.56043681 1331.74271203 1219.75 1341.75 C1219.08460205 1341.85114105 1218.4192041 1341.9522821 1217.73364258 1342.05648804 C1194.23641646 1345.5778024 1170.46936805 1346.29493223 1146.75019646 1346.06043816 C1142.82061598 1346.0260828 1138.89126292 1346.01250149 1134.96156311 1346.00697327 C1134.28573982 1346.00590873 1133.60991652 1346.0048442 1132.91361374 1346.0037474 C1131.53595932 1346.00160988 1130.15830483 1345.99952279 1128.78065026 1345.99748528 C1119.69276967 1345.98286824 1110.60570807 1345.95059196 1101.51831055 1345.8527832 C1060.30491415 1344.49796624 1060.30491415 1344.49796624 1021.58926392 1356.67971802 C1017.74466273 1358.64010438 1013.76214296 1359.98743444 1009.6640625 1361.3125 C1008.31872671 1361.76665033 1006.97350849 1362.22114912 1005.62841797 1362.67602539 C1004.29420435 1363.11813277 1002.95972482 1363.55943834 1001.625 1364 C1000.90459534 1364.23991669 1000.18419067 1364.47983337 999.44195557 1364.72702026 C983.17469485 1370.13019857 966.69677806 1374.78890182 950.15997314 1379.2893219 C944.74542289 1380.76861427 939.37076822 1382.36933683 934 1384 C962.66208913 1391.40760074 991.38586957 1398.33894006 1020.3125 1404.625 C1021.00277283 1404.7751783 1021.69304565 1404.9253566 1022.40423584 1405.08008575 C1030.60091556 1406.86280267 1038.80149001 1408.62629521 1047.00787354 1410.3638916 C1049.52190552 1410.89835994 1052.03352065 1411.4423465 1054.54443359 1411.99121094 C1072.47140145 1415.79555622 1090.48352474 1416.45317499 1108.75 1417.0625 C1112.13392249 1417.17856294 1115.5177381 1417.29663913 1118.90142822 1417.41929626 C1120.9870194 1417.49462063 1123.07275455 1417.56609165 1125.15863037 1417.6330719 C1129.85645304 1417.80010548 1134.37765307 1418.06142029 1139 1419 C1135.55655028 1423.73474336 1131.48015007 1427.29280714 1127 1431 C1126.26136719 1431.65742187 1125.52273438 1432.31484375 1124.76171875 1432.9921875 C1082.69115725 1467.84882874 1013.38141492 1479.69849073 960.2890625 1475.53515625 C939.38490288 1473.54269375 921.04576444 1466.86960285 901.66796875 1459.07421875 C899.11234102 1458.04856576 896.55632495 1457.02391154 894 1456 C893.17699402 1455.66952667 892.35398804 1455.33905334 891.50604248 1454.99856567 C877.06591727 1449.21621072 862.51825874 1443.94298009 847.75 1439.0625 C846.72437958 1438.72160339 845.69875916 1438.38070679 844.64205933 1438.02947998 C830.85970681 1433.4547758 817.03326124 1429.08916434 803.0625 1425.125 C802.34678833 1424.92190216 801.63107666 1424.71880432 800.89367676 1424.509552 C786.02341096 1419.10576023 786.02341096 1419.10576023 771 1419 C768.43619517 1421.30567431 766.30420152 1423.77400421 764.12109375 1426.44140625 C761.65040779 1429.42169963 759.05606075 1431.64918404 756 1434 C759.10964181 1436.44610328 762.34857811 1438.42238352 765.78515625 1440.37890625 C766.95468603 1441.05010721 768.12385965 1441.72192905 769.29272461 1442.39428711 C769.90679169 1442.74699677 770.52085876 1443.09970642 771.15353394 1443.46310425 C809.58025753 1465.59350115 845.65009708 1491.48448725 877.0625 1522.875 C877.99126953 1523.79152344 878.92003906 1524.70804688 879.87695312 1525.65234375 C886.02454013 1531.78698847 891.6333388 1538.17452426 897 1545 C897.53310791 1545.66854004 898.06621582 1546.33708008 898.61547852 1547.02587891 C939 1598.09373534 939 1598.09373534 939 1620 C936.60468067 1620.64779076 934.20878252 1621.29329009 931.8125 1621.9375 C931.13896484 1622.11990234 930.46542969 1622.30230469 929.77148438 1622.49023438 C921.81807223 1624.62407666 914.70138599 1625.24633328 906.46459961 1625.29516602 C904.46770115 1625.31224175 902.47108988 1625.35611186 900.47460938 1625.40039062 C887.12122968 1625.48697114 877.41955976 1622.30724696 867 1614 C866.33613281 1613.49984375 865.67226562 1612.9996875 864.98828125 1612.484375 C851.82432773 1601.91048941 843.16330099 1585.86128159 834.34375 1571.75 C821.36981248 1551.025008 808.18597657 1530.19060184 793 1511 C792.26394531 1510.05382813 791.52789063 1509.10765625 790.76953125 1508.1328125 C772.20051512 1484.79470479 750.34607868 1463.44553456 723 1451 C722.34 1450.67 721.68 1450.34 721 1450 C716.67285308 1449.69927324 712.33634877 1449.72169833 708 1449.6875 C706.80503906 1449.65849609 705.61007812 1449.62949219 704.37890625 1449.59960938 C677.76997717 1449.41017012 656.62598844 1473.38801885 638.9375 1490.8125 C632.46072248 1497.27172114 626.68979837 1504.02811285 621.23388672 1511.36035156 C620.04868654 1512.93530297 618.82386959 1514.48020316 617.59765625 1516.0234375 C602.98855383 1534.44463958 590.80665175 1554.85399383 578.39453125 1574.78515625 C551.03747455 1618.54901804 551.03747455 1618.54901804 526 1625 C521.13174518 1625.54576066 516.33207614 1625.57003813 511.4375 1625.5 C510.12297852 1625.49154053 508.80845703 1625.48308105 507.45410156 1625.47436523 C497.08229772 1625.28637788 485.4866663 1624.74333315 476 1620 C476.59018209 1614.43798092 478.5714298 1609.90119413 480.875 1604.875 C481.27428711 1604.00045166 481.67357422 1603.12590332 482.08496094 1602.22485352 C493.80371892 1576.97802277 509.10476675 1553.70617766 527.96875 1533.21484375 C529.77841988 1531.24160756 531.51839891 1529.22892187 533.25 1527.1875 C540.81928715 1518.50663921 549.18606218 1510.40435585 558 1503 C559.3921875 1501.79150391 559.3921875 1501.79150391 560.8125 1500.55859375 C586.30527273 1478.5117627 614.8368491 1460.44471024 643.83813477 1443.43017578 C644.93955811 1442.78290527 646.04098145 1442.13563477 647.17578125 1441.46875 C648.15458252 1440.89576172 649.13338379 1440.32277344 650.1418457 1439.73242188 C653.15906666 1437.90358444 656.07807444 1435.9766365 659 1434 C658.50371094 1433.57589844 658.00742187 1433.15179687 657.49609375 1432.71484375 C647.31036521 1423.9207138 647.31036521 1423.9207138 644 1420 C644 1419.34 644 1418.68 644 1418 C634.51236283 1419.23942543 625.40069066 1421.2567895 616.1875 1423.8125 C615.14693954 1424.09820358 615.14693954 1424.09820358 614.08535767 1424.38967896 C595.1835774 1429.59811389 576.57066096 1435.72607276 558 1442 C557.3356897 1442.2238739 556.67137939 1442.4477478 555.98693848 1442.67840576 C541.60386479 1447.53428541 527.53085308 1452.96479362 513.50131226 1458.74533081 C453.60516991 1483.41955846 391.56070073 1479.70543795 331.87011719 1455.22607422 C322.40660953 1451.18339512 313.19028574 1446.62261757 304 1442 C303.33613281 1441.67708984 302.67226563 1441.35417969 301.98828125 1441.02148438 C291.95495987 1436.12176216 283.55070578 1428.14772492 276 1420 C276 1419.67 276 1419.34 276 1419 C281.48274452 1417.8943227 286.88995944 1417.73864404 292.4609375 1417.5703125 C294.56511813 1417.49649069 296.66928436 1417.42225744 298.7734375 1417.34765625 C302.0435016 1417.23574739 305.31356494 1417.12689764 308.58398438 1417.02587891 C333.34617144 1416.24683527 356.94291882 1412.94844682 381.125 1407.625 C383.54285806 1407.10012536 385.96074606 1406.57538866 388.37866211 1406.05078125 C419.04862051 1399.35420789 449.71932164 1392.30192976 480 1384 C479.45102051 1383.84031738 478.90204102 1383.68063477 478.33642578 1383.51611328 C474.52287821 1382.40639196 470.70952045 1381.29608024 466.89770508 1380.18041992 C461.30016173 1378.54227961 455.70084775 1376.91158454 450.0927887 1375.30984497 C434.49998292 1370.85160418 419.02854345 1366.14033569 403.6875 1360.875 C402.99812347 1360.63923248 402.30874695 1360.40346497 401.59848022 1360.16055298 C399.56775255 1359.46370929 397.53977215 1358.75927301 395.51171875 1358.0546875 C394.874469 1357.83676639 394.23721926 1357.61884527 393.58065891 1357.39432049 C389.8180375 1356.08208753 386.17429173 1354.65592196 382.55596924 1352.984375 C367.71323894 1346.34127238 354.17157458 1345.90107475 338.09765625 1346.0703125 C335.44176231 1346.06786212 332.78608696 1346.06206267 330.13023376 1346.05172729 C323.88711532 1346.03406618 317.64480846 1346.05473166 311.40179676 1346.0915488 C302.33183118 1346.14369638 293.26183343 1346.14522294 284.19174099 1346.1375103 C283.51312435 1346.13694102 282.8345077 1346.13637175 282.13532692 1346.13578522 C280.77676159 1346.13460053 279.41819637 1346.13328867 278.05963129 1346.13184726 C273.57742224 1346.12868722 269.09566185 1346.14751027 264.61354065 1346.17385864 C202.91736216 1346.40785677 141.90857799 1335.78647107 86 1309 C85.18225098 1308.61231445 84.36450195 1308.22462891 83.52197266 1307.82519531 C55.35468449 1294.403826 26.34956118 1277.07192688 4 1255 C4 1254.67 4 1254.34 4 1254 C8.10132622 1253.02163485 11.95684469 1252.85696183 16.16796875 1252.83203125 C16.86662552 1252.82775116 17.56528229 1252.82347107 18.28511047 1252.81906128 C20.58597085 1252.80898385 22.88662139 1252.80903945 25.1875 1252.8125 C25.98720215 1252.81343658 26.7869043 1252.81437317 27.61083984 1252.81533813 C89.02646365 1252.96979021 149.58078721 1263.1344693 209.58325195 1275.49462891 C210.71839233 1275.72759674 211.85353271 1275.96056458 213.02307129 1276.20059204 C215.15358387 1276.63895744 217.28335308 1277.08095691 219.41223145 1277.52719116 C220.82913269 1277.81923935 220.82913269 1277.81923935 222.2746582 1278.1171875 C223.50524712 1278.37411377 223.50524712 1278.37411377 224.76069641 1278.63623047 C227.27993096 1279.10689713 227.27993096 1279.10689713 231 1279 C230.02546875 1278.42636719 229.0509375 1277.85273437 228.046875 1277.26171875 C203.0544059 1262.35911471 179.09175632 1245.46972821 156.09301758 1227.66259766 C154.77864508 1226.64622928 153.45968619 1225.6357704 152.13671875 1224.63061523 C150.65269696 1223.49809907 149.18216042 1222.34777995 147.72265625 1221.18383789 C139.10134986 1214.54406826 129.56429762 1209.91204295 119.875 1205.0625 C118.04846114 1204.13914939 116.22245889 1203.21473657 114.39697266 1202.28930664 C110.70272987 1200.41730409 107.00645676 1198.54941066 103.30859375 1196.68457031 C95.64126303 1192.81315703 88.00709811 1188.87778248 80.375 1184.9375 C79.01507736 1184.23612266 77.65513295 1183.53478754 76.29516602 1182.83349609 C73.11427743 1181.19274186 69.93419897 1179.55042718 66.75469971 1177.90698242 C65.07472677 1177.03862534 63.39454594 1176.17067048 61.71435547 1175.30273438 C50.6113436 1169.56106636 39.57004437 1163.72306065 28.61401367 1157.70532227 C23.50691229 1154.90249585 18.38453463 1152.13272716 13.23828125 1149.40234375 C-20.75875977 1131.3630016 -53.72404513 1111.86548484 -84 1088 C-85.12417348 1087.13174131 -86.24919965 1086.26458572 -87.375 1085.3984375 C-106.34550396 1070.75248414 -125.11730909 1054.68540224 -139.87109375 1035.69921875 C-142.63334776 1032.19698476 -145.56337836 1028.85625832 -148.5 1025.5 C-153.09936067 1020.22822594 -157.58496796 1014.89011811 -161.98828125 1009.453125 C-164.90735976 1005.89354965 -167.93765904 1002.43651767 -171 999 C-169.62197923 996.03195526 -168.2429227 993.39920743 -166 991 C-158.51173133 990.09527457 -150.16586286 992.96462003 -143 994.9375 C-141.31438965 995.40047485 -141.31438965 995.40047485 -139.59472656 995.87280273 C-107.55820456 1004.93172762 -77.58862318 1019.09982276 -49 1036 C-47.04979634 1037.14116721 -45.09927146 1038.28178563 -43.1484375 1039.421875 C-33.3583033 1045.16108892 -23.62560092 1050.9885398 -14 1057 C-16.96031159 1052.39090727 -20.04767138 1047.90600684 -23.34008789 1043.52709961 C-39.56579793 1021.87534935 -54.25556861 998.78141525 -67.84375 975.40234375 C-68.5039917 974.27610596 -69.1642334 973.14986816 -69.84448242 971.98950195 C-71.11815302 969.81204822 -72.37959424 967.6273752 -73.6262207 965.43432617 C-77.37581392 959.03004373 -81.21349301 954.58838821 -87 950 C-88.22504617 948.89280596 -89.43881073 947.77299385 -90.640625 946.640625 C-91.229646 946.08834229 -91.81866699 945.53605957 -92.42553711 944.96704102 C-93.02760986 944.40041748 -93.62968262 943.83379395 -94.25 943.25 C-98.78929905 938.99465363 -103.34181897 934.75692103 -107.9375 930.5625 C-128.27885177 911.95291196 -128.27885177 911.95291196 -136.8125 903.125 C-138.71947972 901.27250541 -140.67023378 899.54268683 -142.68359375 897.80859375 C-147.34563905 893.75750415 -151.70783396 889.43932719 -156.0625 885.0625 C-157.2081543 883.92264648 -157.2081543 883.92264648 -158.37695312 882.75976562 C-163.12556812 878.00302639 -167.63074118 873.10555099 -172 868 C-172.86882812 867.01257812 -173.73765625 866.02515625 -174.6328125 865.0078125 C-191.24505697 845.79176796 -205.120341 824.4150274 -217 802 C-217.34627441 801.34741211 -217.69254883 800.69482422 -218.04931641 800.02246094 C-226.78626477 783.40053383 -234.04246478 766.10430413 -240.375 748.4375 C-240.77960449 747.30924805 -241.18420898 746.18099609 -241.60107422 745.01855469 C-249 723.97121479 -249 723.97121479 -249 718 C-225.3284967 726.70675984 -202.73862294 745.13778188 -183.9296875 761.47265625 C-181.04254613 763.96329688 -178.09713333 766.36182241 -175.125 768.75 C-171.42219299 771.76154492 -167.99985164 774.88099867 -164.68359375 778.30859375 C-160.11387219 782.89952051 -155.06698144 786.97622062 -150 791 C-154.26097901 774.31945289 -159.49357789 759.52466943 -168.35400391 744.74658203 C-170.04905974 741.91813675 -171.70599531 739.07008656 -173.35546875 736.21484375 C-175.67504259 732.20581782 -178.01034731 728.20668071 -180.359375 724.21484375 C-183.49769467 718.87376295 -186.58447849 713.50449778 -189.66235352 708.12841797 C-195.77690787 697.45799818 -202.06276052 686.92578469 -208.578125 676.49609375 C-226.32264416 648.0746995 -243.74519662 619.30088158 -260 590 C-260.46841309 589.16033691 -260.93682617 588.32067383 -261.41943359 587.45556641 C-278.49125163 556.6380615 -293.62719754 517.7502595 -293 482 C-282.90610988 486.5702471 -274.50338413 491.90431268 -266 499 C-265.12529053 499.72243896 -265.12529053 499.72243896 -264.23291016 500.45947266 C-253.66580661 509.21637797 -243.88787216 518.52302803 -235 529 C-234.22527344 529.88558594 -233.45054687 530.77117188 -232.65234375 531.68359375 C-215.3822239 551.55155633 -201.12712044 573.24822293 -188 596 C-188.03758423 594.93700684 -188.03758423 594.93700684 -188.07592773 593.85253906 C-188.15166676 591.68101012 -188.22561698 589.50941841 -188.29826355 587.33778381 C-188.38911081 584.62984936 -188.4871235 581.92229498 -188.58932495 579.21476746 C-188.87348645 571.31997313 -189.01439365 563.4543882 -188.90893555 555.55493164 C-188.64945397 525.83186813 -193.58325137 497.91395637 -199.61149979 468.89019012 C-200.90971931 462.59431159 -202.16306027 456.28954125 -203.41772461 449.98486328 C-203.92130306 447.45665141 -204.42494963 444.92845311 -204.92866516 442.40026855 C-205.17614313 441.15793961 -205.4236211 439.91561066 -205.6785984 438.63563538 C-206.42021883 434.92238196 -207.16668193 431.21013468 -207.91471863 427.49816895 C-213.11892192 401.64684463 -217.71983221 375.71667972 -222.03808594 349.70361328 C-222.76703709 345.33654643 -223.5405816 340.97995155 -224.34625244 336.62644958 C-230.90111358 301.20341809 -227.67176663 266.59465258 -224 231 C-221.36 231 -218.72 231 -216 231 C-192.86366853 269.64460816 -181.06022125 312.99280332 -173 357 C-171.6992579 351.68825205 -170.41845491 346.37220327 -169.15478516 341.05151367 C-168.72352312 339.2475134 -168.28712575 337.44473184 -167.84521484 335.64331055 C-167.20569189 333.03228769 -166.5856544 330.41722906 -165.96875 327.80078125 C-165.77188599 327.01480057 -165.57502197 326.22881989 -165.37219238 325.41902161 C-162.4667887 312.84477157 -164.32334721 299.98715885 -165.64453125 287.3125 C-165.81737536 285.60374593 -165.98953438 283.89492243 -166.16105652 282.18603516 C-166.6131424 277.69529623 -167.07227101 273.20530982 -167.53363037 268.71551514 C-175.62630903 189.9124146 -175.62630903 189.9124146 -175.375 166.25 C-175.37034729 165.42732635 -175.36569458 164.60465271 -175.36090088 163.75704956 C-175.15237257 131.79225641 -169.08665092 101.62414441 -157 72 C-151.37273409 73.8757553 -148.88114045 81.27840506 -146.28222656 86.3671875 C-129.16136609 121.52167328 -125.76691695 157.59731306 -124 196 C-123.62302979 195.13012451 -123.24605957 194.26024902 -122.85766602 193.36401367 C-121.41856115 190.0457078 -119.97565271 186.72906771 -118.53134155 183.4130249 C-117.88445515 181.92706283 -117.23831877 180.44077402 -116.59292603 178.9541626 C-113.30160348 171.37758332 -109.99872033 163.84340405 -106.25317383 156.4777832 C-101.00372246 146.11958742 -97.88211242 135.22464343 -94.67173767 124.11358643 C-84.87481463 90.22453 -69.6142512 58.63453104 -45 33 C-43.74123047 31.66388672 -43.74123047 31.66388672 -42.45703125 30.30078125 C-34.42755226 21.99322507 -12.7945943 0 0 0 Z M-152 392 C-151 394 -151 394 -151 394 Z " fill="#262262" transform="translate(293,293)"/>
<path d="M0 0 C2.79000009 1.66369014 5.59197006 3.30504553 8.39892578 4.93994141 C36.32872572 21.23437463 63.27390348 39.19241548 89.80126953 57.67041016 C90.5642334 58.20053711 91.32719727 58.73066406 92.11328125 59.27685547 C101.88167529 66.06771764 111.59286968 72.92994751 121.22265625 79.91601562 C126.22180996 83.54004396 131.2503533 87.11893905 136.30126953 90.67041016 C149.66689212 100.07970889 162.92692287 109.59623389 175.80126953 119.67041016 C176.90527064 120.52739431 178.00944116 121.38416026 179.11376953 122.24072266 C191.40951583 131.80779496 203.40273694 141.74670967 215.27026367 151.83837891 C218.58431025 154.6532625 221.92931809 157.42523355 225.30126953 160.17041016 C232.1054074 165.71233114 238.78102831 171.40349939 245.46728516 177.08642578 C251.02194987 181.80560626 256.58186878 186.51116065 262.23876953 191.10791016 C266.48519711 194.56315472 270.65415377 198.09747592 274.80126953 201.67041016 C280.72248107 206.77003353 286.73167071 211.74789325 292.80126953 216.67041016 C294.53101229 218.08637336 296.26016515 219.50305745 297.98876953 220.92041016 C301.2412008 223.58403921 304.50082877 226.23833745 307.77001953 228.88134766 C322.94113947 241.15028919 322.94113947 241.15028919 327.80126953 245.67041016 C328.61337891 246.41806641 329.42548828 247.16572266 330.26220703 247.93603516 C349.50575105 266.35249276 363.75177581 290.18955655 376.51855469 313.3515625 C377.64123173 315.38109934 378.7845116 317.39658278 379.93798828 319.40869141 C392.47762672 341.86812497 409.74147433 373.66184397 402.90673828 400.13525391 C398.65586418 411.4093113 390.95069164 420.29122944 380.34423828 425.99072266 C366.9778619 431.72203247 352.80420457 428.51272297 339.42626953 424.73291016 C338.02310416 424.35417249 336.61945771 423.97721255 335.21533203 423.60205078 C325.32663538 420.93309308 325.32663538 420.93309308 322.80126953 419.67041016 C323.09783447 420.20706299 323.39439941 420.74371582 323.69995117 421.29663086 C328.99431882 430.94781121 334.08056562 440.56445163 337.86376953 450.92041016 C338.13777588 451.66846924 338.41178223 452.41652832 338.6940918 453.18725586 C342.62576402 464.38933183 345.29424163 477.46508306 341.86376953 489.17041016 C337.45162602 497.93189087 327.61003172 502.87416079 319.23876953 507.10791016 C318.15756836 507.66212646 317.07636719 508.21634277 315.96240234 508.78735352 C280.27389527 526.67041016 280.27389527 526.67041016 266.80126953 526.67041016 C267.02790283 527.21866455 267.25453613 527.76691895 267.48803711 528.33178711 C282.87005593 565.70268217 282.87005593 565.70268217 276.80126953 580.67041016 C270.14647903 595.67339767 245.08338839 603.27193823 230.93066406 608.78955078 C204.90039661 618.67041016 204.90039661 618.67041016 197.80126953 618.67041016 C198.02790283 619.33459961 198.25453613 619.99878906 198.48803711 620.68310547 C199.53492971 623.76053741 200.57437048 626.84043958 201.61376953 629.92041016 C202.1484082 631.48662109 202.1484082 631.48662109 202.69384766 633.08447266 C207.87521904 648.48598027 214.95032361 670.77459809 207.98876953 686.81103516 C194.1771125 708.43718235 153.25035158 719.60807442 129.49658203 724.88525391 C116.36486021 727.65020295 103.79291066 728.90895532 90.36376953 728.92041016 C89.29604813 728.92142227 89.29604813 728.92142227 88.20675659 728.92245483 C77.14855127 728.90582502 66.56624528 728.34158017 55.80126953 725.67041016 C54.7904834 725.43692871 54.7904834 725.43692871 53.75927734 725.19873047 C18.02771204 716.77448848 -12.74978585 692.09102293 -32.52490234 661.62744141 C-54.10182902 626.48294324 -57.28306327 580.30867635 -57.40185547 540.05712891 C-57.40880262 538.57832823 -57.41579758 537.09952778 -57.4228363 535.62072754 C-57.44213086 530.86645226 -57.44676689 526.11221994 -57.44873047 521.35791016 C-57.44983511 520.13533697 -57.44983511 520.13533697 -57.45096207 518.88806534 C-57.47351559 488.17869481 -56.43797066 457.64599172 -54.4173584 426.99664307 C-54.19467451 423.60870228 -53.97769839 420.22043666 -53.76220703 416.83203125 C-52.95114568 404.10837412 -52.10104502 391.38791965 -51.19873047 378.67041016 C-52.06224121 378.88656982 -52.92575195 379.10272949 -53.81542969 379.32543945 C-90.06672445 388.36066551 -127.05960629 396.70355132 -164.61279297 396.87353516 C-165.65794571 396.88054947 -166.70309845 396.88756378 -167.77992249 396.89479065 C-171.12790294 396.91217311 -174.47570657 396.91864136 -177.82373047 396.92041016 C-178.96734039 396.9210849 -180.11095032 396.92175964 -181.28921509 396.92245483 C-197.79558084 396.90696242 -213.90851139 396.57304159 -230.19873047 393.67041016 C-231.62403076 393.43692871 -231.62403076 393.43692871 -233.078125 393.19873047 C-273.23043315 386.51001679 -311.51375244 369.85570134 -341.19873047 341.67041016 C-341.70549316 341.19619629 -342.21225586 340.72198242 -342.734375 340.23339844 C-349.07398252 334.27108045 -354.92876238 328.14337641 -360.07373047 321.10791016 C-360.50878906 320.52436768 -360.94384766 319.9408252 -361.39208984 319.33959961 C-364.23904799 315.28173685 -364.23904799 315.28173685 -364.06236267 312.60269165 C-363.19873047 310.67041016 -363.19873047 310.67041016 -361.40284729 309.58920288 C-360.61433884 309.31484406 -359.82583038 309.04048523 -359.01342773 308.7578125 C-358.11202057 308.4351944 -357.2106134 308.11257629 -356.28189087 307.78018188 C-355.286362 307.44231659 -354.29083313 307.10445129 -353.26513672 306.75634766 C-352.22465179 306.38859222 -351.18416687 306.02083679 -350.1121521 305.64193726 C-346.66696456 304.42791275 -343.21437416 303.23659632 -339.76123047 302.04541016 C-337.37794137 301.21139094 -334.99521543 300.37576084 -332.61303711 299.53857422 C-328.91433886 298.23897765 -325.21523448 296.94068616 -321.51396179 295.6484375 C-312.87918986 292.63254694 -304.27751855 289.53197748 -295.69091797 286.38134766 C-293.38942882 285.53964649 -291.0879156 284.69801112 -288.78637695 283.85644531 C-285.47181244 282.64395364 -282.15844434 281.42863012 -278.84841919 280.20379639 C-275.79028701 279.07349363 -272.727595 277.95650662 -269.66357422 276.84228516 C-268.30623672 276.33439957 -268.30623672 276.33439957 -266.92147827 275.81625366 C-265.67414413 275.36652695 -265.67414413 275.36652695 -264.40161133 274.90771484 C-263.682108 274.64303406 -262.96260468 274.37835327 -262.22129822 274.10565186 C-259.8279009 273.59061036 -258.47675335 273.80423949 -256.19873047 274.67041016 C-254.22607422 276.75244141 -254.22607422 276.75244141 -252.13623047 279.48291016 C-244.00822865 289.73935763 -235.56584005 298.6071027 -225.19873047 306.67041016 C-224.39951172 307.33556641 -223.60029297 308.00072266 -222.77685547 308.68603516 C-181.54632778 342.91006794 -125.92680112 356.33759895 -73.22802734 352.37158203 C-65.53090688 351.63907082 -57.85938245 350.71567633 -50.19873047 349.67041016 C-44.41530493 284.32835661 -44.41530493 284.32835661 -65.19873047 224.67041016 C-71.92234457 217.05571467 -80.37877048 215.35405697 -90.19873047 214.67041016 C-95.61577757 214.47908529 -101.02858104 214.42476588 -106.44873047 214.42041016 C-107.20406067 214.41973541 -107.95939087 214.41906067 -108.73760986 214.41836548 C-121.10763094 214.43587192 -133.06038517 215.11457533 -145.19873047 217.67041016 C-146.024375 217.8420166 -146.85001953 218.01362305 -147.70068359 218.19042969 C-164.25762521 221.74515296 -180.34364343 227.00293184 -195.12548828 235.35717773 C-199.6117398 237.79265597 -199.6117398 237.79265597 -202.37451172 237.21728516 C-204.80420493 235.15698856 -206.54751515 232.92056227 -208.44873047 230.35791016 C-209.33386706 229.17671064 -210.21930538 227.9957372 -211.10498047 226.81494141 C-211.59353516 226.1583252 -212.08208984 225.50170898 -212.58544922 224.82519531 C-214.34648547 222.47306064 -216.1296041 220.13892388 -217.91748047 217.80712891 C-225.06291121 208.48524665 -232.11284838 199.10326941 -239.04931641 189.625 C-243.00914408 184.23392285 -247.07119471 178.93392278 -251.19873047 173.67041016 C-256.5421737 166.85471025 -261.73726122 159.94584013 -266.84765625 152.95385742 C-270.00184956 148.64098994 -273.18443836 144.35334862 -276.41357422 140.09619141 C-277.4549353 138.72116455 -277.4549353 138.72116455 -278.51733398 137.31835938 C-279.86679889 135.53968676 -281.22003288 133.76386614 -282.57739258 131.99121094 C-283.18204346 131.19312012 -283.78669434 130.3950293 -284.40966797 129.57275391 C-284.94897949 128.86626709 -285.48829102 128.15978027 -286.04394531 127.43188477 C-287.19873047 125.67041016 -287.19873047 125.67041016 -287.19873047 123.67041016 C-277.11812637 122.00275719 -267.14480873 121.16130533 -256.95092773 120.66503906 C-254.53105467 120.54638222 -252.11204377 120.41578467 -249.69287109 120.28369141 C-172.05316411 116.21555939 -98.09756456 131.76980863 -38.86669922 184.62353516 C-32.9111137 190.00677896 -27.32463708 195.48126965 -22.19873047 201.67041016 C-21.38146484 202.59982422 -20.56419922 203.52923828 -19.72216797 204.48681641 C5.3412238 233.0967028 22.32334356 268.14427356 31.30126953 304.98291016 C31.54449951 305.97758301 31.78772949 306.97225586 32.03833008 307.99707031 C33.61674807 314.86471459 34.38575098 321.63992923 34.80126953 328.67041016 C35.58501953 328.45126953 36.36876953 328.23212891 37.17626953 328.00634766 C57.86906605 322.52097272 79.06181946 318.92056522 100.30126953 316.35791016 C100.96697968 316.27677979 101.63268982 316.19564941 102.318573 316.11206055 C141.49105726 311.40034899 188.66047762 308.83570743 224.80126953 327.67041016 C223.47837747 331.63908633 221.11462233 332.53752377 217.67626953 334.54541016 C209.1108158 339.72518099 200.82824181 345.2965904 192.55126953 350.92041016 C191.87495483 351.37968903 191.19864014 351.8389679 190.50183105 352.31216431 C179.93535641 359.49333233 169.42318043 366.74870937 158.99072266 374.12353516 C156.81049584 375.66389166 154.62668438 377.1990343 152.44189453 378.73291016 C143.6865 384.88610376 134.98937607 391.11674152 126.32470703 397.39697266 C123.35760506 399.54732398 120.38376449 401.68771332 117.40283203 403.81884766 C94.21941753 420.15656171 94.21941753 420.15656171 72.80126953 438.67041016 C72.00205078 439.40775391 71.20283203 440.14509766 70.37939453 440.90478516 C53.77526978 456.68386023 42.55131706 477.30684591 34.80126953 498.67041016 C34.33382324 499.95117432 34.33382324 499.95117432 33.85693359 501.2578125 C27.86742453 518.41189323 28.31245683 534.73771888 29.80126953 552.67041016 C29.89617676 553.83072754 29.99108398 554.99104492 30.08886719 556.18652344 C32.68362209 585.82180871 38.70064794 614.84657615 51.80126953 641.67041016 C52.36716797 642.83185547 52.93306641 643.99330078 53.51611328 645.18994141 C69.48142688 676.25656339 94.04968969 695.4971633 126.80126953 706.67041016 C123.35409564 679.40172114 114.60638333 654.37751244 102.80126953 629.67041016 C102.35799316 628.7400293 101.9147168 627.80964844 101.45800781 626.85107422 C91.22827269 605.537049 79.30694207 585.3433717 66.59887695 565.42236328 C66.00051025 564.47941406 65.40214355 563.53646484 64.78564453 562.56494141 C64.25680664 561.73841064 63.72796875 560.91187988 63.18310547 560.06030273 C61.79288062 557.65590149 60.8058361 555.25499305 59.80126953 552.67041016 C70.70334429 552.40710518 81.60547294 552.14616371 92.50767326 551.8881073 C97.57187507 551.76816555 102.63605605 551.64745839 107.70019531 551.52490234 C112.60202877 551.40630406 117.50390912 551.2898464 122.40582657 551.17477417 C124.26099533 551.13086681 126.11614706 551.08623261 127.97127914 551.040802 C139.91733134 550.748861 151.85163488 550.61322999 163.80126953 550.67041016 C182.80772459 585.3670293 182.80772459 585.3670293 189.80126953 599.67041016 C183.76589285 569.37440747 169.29743108 542.11606758 153.80126953 515.67041016 C153.03314941 514.35314941 153.03314941 514.35314941 152.24951172 513.00927734 C146.32234949 502.87402051 140.16241483 492.95797038 133.45727539 483.31567383 C132.97782471 482.61676025 132.49837402 481.91784668 132.00439453 481.19775391 C131.3648584 480.28110962 131.3648584 480.28110962 130.71240234 479.34594727 C129.80126953 477.67041016 129.80126953 477.67041016 129.80126953 474.67041016 C141.31125415 474.40791201 152.82127384 474.14701401 164.33133984 473.8881073 C169.67704718 473.76781209 175.02274135 473.64698467 180.3684082 473.52490234 C185.53607191 473.40690542 190.70376651 473.29035694 195.87148476 473.17477417 C197.83405006 473.1306316 199.79660409 473.08598441 201.75914574 473.040802 C206.22647377 472.93809855 210.69364011 472.84116304 215.16146851 472.76293945 C218.05920089 472.71204408 220.95193662 472.62995414 223.8475647 472.50952148 C225.005737 472.4749585 226.1639093 472.44039551 227.35717773 472.40478516 C228.32750443 472.36450195 229.29783112 472.32421875 230.29756165 472.28271484 C233.56338251 472.78842218 234.71451546 474.0313346 236.86376953 476.48291016 C237.81899128 477.90239022 238.76833877 479.3271286 239.65722656 480.7890625 C241.04762095 483.07552839 242.50057858 485.31778139 243.95361328 487.56494141 C246.95485371 492.23514296 249.89410739 496.94117395 252.80126953 501.67041016 C245.37059174 467.06785089 225.34758316 435.35890754 206.80126953 405.67041016 C205.7364619 403.94837527 204.6725601 402.22577971 203.60986328 400.50244141 C199.54772982 393.79536359 199.54772982 393.79536359 195.04345703 387.38916016 C193.80126953 385.67041016 193.80126953 385.67041016 193.80126953 383.67041016 C194.97931152 383.645354 196.15735352 383.62029785 197.37109375 383.59448242 C201.83307831 383.49875817 206.29496516 383.39897343 210.75683594 383.2980957 C212.67087484 383.25535876 214.58493716 383.21365539 216.49902344 383.1730957 C222.04223291 383.05524794 227.58394881 382.91288945 233.12582397 382.7434082 C235.74203516 382.67202633 238.35749895 382.63112454 240.97436523 382.59228516 C242.57686201 382.54810841 244.17932297 382.50260549 245.78173828 382.45556641 C246.50090424 382.4530336 247.22007019 382.45050079 247.96102905 382.44789124 C254.49265069 382.19954448 257.532613 379.41921893 261.88208008 374.80029297 C262.27177979 374.28821289 262.66147949 373.77613281 263.06298828 373.24853516 C263.51335449 372.66523437 263.9637207 372.08193359 264.42773438 371.48095703 C265.10763428 370.58473633 265.10763428 370.58473633 265.80126953 369.67041016 C266.2764502 369.07292969 266.75163086 368.47544922 267.24121094 367.85986328 C281.10005055 350.42349844 292.15653126 330.26598111 293.80126953 307.67041016 C293.85541016 307.01943359 293.90955078 306.36845703 293.96533203 305.69775391 C295.00613193 281.14433805 282.68367833 259.38387442 266.80126953 241.67041016 C262.27148458 236.85947167 257.58250677 232.20453713 252.88989258 227.55322266 C250.7340808 225.41576134 248.58647331 223.27031168 246.43994141 221.12353516 C245.04913713 219.73764489 243.65787667 218.35221224 242.26611328 216.96728516 C241.32045753 216.02329865 241.32045753 216.02329865 240.35569763 215.0602417 C236.55923183 211.3034166 232.65215645 207.72302243 228.60507202 204.23733521 C225.83217736 201.8285803 223.16732322 199.30784872 220.48876953 196.79541016 C215.69131325 192.33214308 210.76964581 188.10066587 205.65673828 183.99853516 C203.02946587 181.85646353 200.46769933 179.6594435 197.91308594 177.43237305 C190.18522759 170.70498666 182.14366018 164.46941993 173.96142578 158.30712891 C171.8443749 156.70307047 169.74246561 155.08124492 167.64501953 153.45166016 C152.21071477 141.47930648 136.1822333 130.30857497 119.80126953 119.67041016 C119.10807617 119.22020508 118.41488281 118.77 117.70068359 118.30615234 C68.8106801 86.70202514 16.68313975 61.01782208 -38.19873047 41.67041016 C-39.35066895 41.26226074 -40.50260742 40.85411133 -41.68945312 40.43359375 C-99.41401648 20.1417194 -159.3070438 8.71226225 -220.19873047 3.67041016 C-221.4054541 3.56583496 -222.61217773 3.46125977 -223.85546875 3.35351562 C-237.98283436 2.28963345 -252.16457611 2.42588554 -266.32373047 2.42041016 C-267.02135624 2.41982101 -267.71898201 2.41923187 -268.43774796 2.41862488 C-310.11102591 2.39381824 -350.30667055 6.34397262 -391.19873047 14.67041016 C-400.82401619 1.6580868 -410.34898883 -11.42212778 -419.80322266 -24.55908203 C-425.89111797 -33.01552021 -432.00741788 -41.44847894 -438.19873047 -49.82958984 C-444.37700513 -58.19305146 -450.48005587 -66.60842059 -456.5546875 -75.04736328 C-459.96339358 -79.7792588 -463.38203524 -84.50399015 -466.79858398 -89.23022461 C-467.79286126 -90.60648771 -468.78569006 -91.98379877 -469.77685547 -93.36230469 C-470.73750225 -94.69144133 -471.70649925 -96.01457661 -472.68310547 -97.33203125 C-476.19873047 -102.11540445 -476.19873047 -102.11540445 -476.19873047 -104.32958984 C-466.48711543 -106.17019226 -456.78773453 -107.10753626 -446.94873047 -107.89208984 C-445.75521973 -107.98872421 -445.75521973 -107.98872421 -444.53759766 -108.08731079 C-363.35349534 -114.62829182 -282.03208235 -107.26344867 0 0 Z M37.80126953 350.67041016 C37.67905428 352.11225309 37.62354196 353.5598416 37.59594727 355.0065918 C37.57600204 355.92747086 37.55605682 356.84834991 37.5355072 357.7971344 C37.51879471 358.79816696 37.50208221 359.79919952 37.48486328 360.83056641 C37.46408218 361.85016953 37.44330109 362.86977264 37.42189026 363.92027283 C37.35628101 367.19108064 37.29745719 370.46197152 37.23876953 373.73291016 C37.19559512 375.94450744 37.15198119 378.15609619 37.10791016 380.36767578 C37.00058813 385.80183167 36.8988433 391.23607097 36.80126953 396.67041016 C39.95848012 395.47258856 42.81622303 394.17691572 45.67236328 392.37744141 C46.40044189 391.91974365 47.12852051 391.4620459 47.87866211 390.99047852 C48.65749756 390.49298096 49.43633301 389.9954834 50.23876953 389.48291016 C51.06207764 388.95898682 51.88538574 388.43506348 52.73364258 387.89526367 C67.91951971 378.16532216 82.8687082 368.14205712 96.80126953 356.67041016 C97.32342041 356.25049805 97.84557129 355.83058594 98.38354492 355.39794922 C102.59722958 351.97380071 106.17186418 348.45554122 108.80126953 343.67041016 C108.73547304 340.27879913 108.73547304 340.27879913 106.80126953 337.67041016 C90.58668847 336.03026687 49.74020942 338.73147027 37.80126953 350.67041016 Z " fill="#009245" transform="translate(841.19873046875,265.32958984375)"/>
<path d="M0 0 C0.70850098 0.18804199 1.41700195 0.37608398 2.14697266 0.56982422 C24.83843471 6.85384444 45.52056241 19.1319518 61 37 C61 37.66 61 38.32 61 39 C60.42258057 38.96447021 59.84516113 38.92894043 59.25024414 38.89233398 C11.24001791 36.04414883 -31.40922126 47.75927648 -67.828125 80.0859375 C-99.15810623 108.54924394 -116.24624071 151.33719288 -125.57421875 191.625 C-125.73860254 192.3284127 -125.90298634 193.03182541 -126.07235146 193.75655365 C-130.64628703 213.35560659 -134.7716062 233.05495716 -138.95276165 252.74057579 C-182.9718284 459.95203182 -182.9718284 459.95203182 -233 520 C-233.4527832 520.55429687 -233.90556641 521.10859375 -234.37207031 521.6796875 C-245.88579615 535.76554237 -258.64786604 548.80455124 -273 560 C-274.24755376 561.02137512 -275.49212606 562.04639821 -276.734375 563.07421875 C-284.64904392 569.61329997 -292.7065439 575.79326706 -301.11914062 581.67382812 C-303.88893513 583.62677773 -306.62836942 585.62083655 -309.37036133 587.61254883 C-319.82383571 595.20447657 -330.39616793 602.62012201 -341 610 C-341.90911133 610.63309082 -342.81822266 611.26618164 -343.75488281 611.91845703 C-352.47669294 617.99165642 -361.20045427 624.06201487 -369.9375 630.11328125 C-379.54892209 636.77548211 -389.12368869 643.47675658 -398.58203125 650.35498047 C-402.76971185 653.398769 -406.98377467 656.39794176 -411.23022461 659.35913086 C-421.27526813 666.37028622 -430.99233033 673.784286 -440.70605469 681.24511719 C-443.59912596 683.45833519 -446.51506929 685.63821155 -449.4375 687.8125 C-463.80207642 698.55523878 -477.65624826 709.93394574 -491.30859375 721.56298828 C-492.99292607 722.99399002 -494.6834628 724.41737035 -496.375 725.83984375 C-509.14282418 736.62152145 -521.31097925 748.05809178 -533 760 C-531.74574219 760.1959375 -530.49148438 760.391875 -529.19921875 760.59375 C-515.09056241 762.88668814 -501.22312211 765.90964993 -487.33666992 769.26953125 C-471.57135859 773.20785829 -471.57135859 773.20785829 -455.7421875 771.1796875 C-451.8320836 768.53203867 -450.98299938 762.12972905 -449.49609375 757.77734375 C-427.48141089 693.88264124 -427.48141089 693.88264124 -401.78515625 680.30078125 C-376.39976616 668.0672152 -348.87306767 675.06129871 -322.86889648 681.84692383 C-314.55021823 683.97654365 -306.23382499 685.34279472 -297.7265625 686.45703125 C-294 687 -294 687 -292 688 C-291.56366115 694.08450292 -292.95102713 698.38975095 -295.375 703.9375 C-295.73150635 704.76435303 -296.0880127 705.59120605 -296.45532227 706.44311523 C-303.03376781 721.22373712 -312.94786617 739.71878978 -328.703125 746.09375 C-345.36682725 750.67429375 -363.74786688 744.685184 -380 741 C-383.95711076 740.1120921 -387.91659225 739.23645245 -391.88134766 738.38330078 C-394.35163714 737.85058024 -396.81902851 737.30416788 -399.28271484 736.74169922 C-407.12693465 735.04774236 -414.39526053 733.80756607 -421.86328125 737.36328125 C-425.21420849 741.49833771 -426.54054372 746.17317089 -428.1875 751.1875 C-428.96777799 753.450455 -429.75174425 755.71214104 -430.5390625 757.97265625 C-430.94157227 759.1342627 -431.34408203 760.29586914 -431.75878906 761.49267578 C-440.91626646 787.36921399 -451.17221685 816.09800445 -477.62890625 828.74316406 C-502.06861148 839.69120798 -529.38273882 832.75875625 -554.04443359 826.08496094 C-563.7427858 823.47380132 -572.93274796 821.89232886 -583 822 C-592.38996204 839.12855045 -592.38996204 839.12855045 -600.0625 857.0625 C-600.31201416 857.73643799 -600.56152832 858.41037598 -600.81860352 859.10473633 C-605.22310252 871.73897044 -607.71117376 884.85754686 -609.625 898.0625 C-609.78275406 899.13340881 -609.78275406 899.13340881 -609.94369507 900.22595215 C-617.1404565 949.2698427 -613.59809316 990.18056101 -595 1036 C-586.40909249 1057.26170036 -578.40893442 1078.50872452 -572.9375 1100.8125 C-572.72109863 1101.68447021 -572.50469727 1102.55644043 -572.28173828 1103.45483398 C-572.09466309 1104.25993408 -571.90758789 1105.06503418 -571.71484375 1105.89453125 C-571.55105225 1106.59425049 -571.38726074 1107.29396973 -571.21850586 1108.01489258 C-570.97223409 1110.25225096 -571.33292373 1111.86481773 -572 1114 C-592.2419089 1099.84283325 -611.21225339 1082.72295365 -625.77001953 1062.67871094 C-627.05719052 1060.92194482 -628.38188414 1059.1987935 -629.71484375 1057.4765625 C-652.73546352 1027.42242589 -667.6182805 991.20433868 -674 954 C-674.16226074 953.06671875 -674.32452148 952.1334375 -674.49169922 951.171875 C-685.01463502 887.57815773 -670.63618239 821.71383383 -633.51953125 768.99609375 C-624.1400301 755.95142341 -613.82892479 743.85675494 -603 732 C-602.13632812 731.04351563 -601.27265625 730.08703125 -600.3828125 729.1015625 C-592.40765384 720.29373067 -584.26697896 711.65289924 -575.21484375 703.93359375 C-572.88676356 701.90114279 -570.62862292 699.80628542 -568.37060547 697.69677734 C-562.99529545 692.67701438 -557.5281411 687.86786685 -551.7890625 683.26171875 C-549.31289878 681.25373724 -546.88557004 679.19890402 -544.46923828 677.11962891 C-538.293746 671.81419066 -531.92632185 666.81725635 -525.43457031 661.9050293 C-520.76542627 658.36768827 -516.17458535 654.75190059 -511.625 651.0625 C-503.75929778 644.71007907 -495.61916057 638.74865511 -487.45263672 632.79101562 C-483.397819 629.83002192 -479.35487704 626.8529447 -475.3125 623.875 C-474.12575684 623.00125732 -474.12575684 623.00125732 -472.91503906 622.10986328 C-467.27063229 617.94941558 -461.6548788 613.75227547 -456.0534668 609.53417969 C-451.7363179 606.28788085 -447.39190568 603.08114797 -443.03393555 599.88989258 C-433.57997814 592.96350583 -424.28106049 585.86237376 -415.06640625 578.62109375 C-413.12178524 577.09554041 -411.17149546 575.57763232 -409.21875 574.0625 C-402.36733043 568.73475991 -395.67875237 563.25294946 -389.08203125 557.61328125 C-386.26364971 555.20918687 -383.38828047 552.88232006 -380.5 550.5625 C-375.16484181 546.2213742 -370.13916847 541.59271987 -365.1171875 536.8984375 C-362.47225078 534.42715012 -359.77739546 532.01944879 -357.0625 529.625 C-347.82543099 521.33880574 -338.97558627 512.51003911 -331 503 C-330.20722656 502.09636719 -329.41445312 501.19273437 -328.59765625 500.26171875 C-320.76933726 491.28824654 -313.81567299 481.75701259 -307 472 C-306.55269531 471.36336426 -306.10539062 470.72672852 -305.64453125 470.07080078 C-259.14246605 403.51919131 -237.31051965 322.41592549 -216.375 245.0625 C-178.82744931 106.34290495 -178.82744931 106.34290495 -146 62 C-145.57009766 61.41750488 -145.14019531 60.83500977 -144.69726562 60.23486328 C-130.32638503 40.9705405 -113.9939307 24.90010401 -93 13 C-92.41250977 12.66629395 -91.82501953 12.33258789 -91.21972656 11.98876953 C-64.01113445 -3.16764245 -30.23343609 -8.07257072 0 0 Z " fill="#009245" transform="translate(1586,307)"/>
<path d="M0 0 C0.61391602 0.2716095 1.22783203 0.54321899 1.86035156 0.82305908 C25.52308696 11.30108172 48.79692637 22.54535292 72 34 C73.75981201 34.8674585 73.75981201 34.8674585 75.55517578 35.75244141 C85.76782848 40.79437224 95.90196773 45.9629673 105.96191406 51.30297852 C111.59981084 54.28813011 117.28549239 57.16459106 123 60 C132.0192496 64.47846947 140.94076044 69.12396368 149.83056641 73.85351562 C151.83198715 74.91120996 153.84124299 75.95133126 155.85546875 76.984375 C184.90597027 91.97905467 211.32478355 112.22407924 237.73388672 131.35888672 C239.98932818 132.9922715 242.24628393 134.62353737 244.50390625 136.25390625 C245.24471436 136.78894775 245.98552246 137.32398926 246.7487793 137.87524414 C248.25879484 138.96505582 249.7693815 140.05407658 251.28051758 141.14233398 C254.87198821 143.73058329 258.45347736 146.32968678 262.0078125 148.96875 C323.46782893 194.37643891 398.48924555 240.03316022 478.00244141 228.41015625 C517.9987133 221.97744047 552.89279982 202.63881472 583.375 176.5625 C622.71198314 142.94540471 670.61609759 118.98847554 723 117 C724.05574219 116.95875 725.11148437 116.9175 726.19921875 116.875 C782.10019259 115.81652002 835.51846192 139.84963645 878 175 C879.45599609 176.17755859 879.45599609 176.17755859 880.94140625 177.37890625 C890.22968621 184.98155678 898.62468219 193.41412498 907 202 C906.67 202.66 906.34 203.32 906 204 C905.3915625 203.45472656 904.783125 202.90945313 904.15625 202.34765625 C872.8916719 175.45092362 828.21251997 168.62817297 788.23364258 171.46264648 C767.98604376 173.12809603 748.24222073 177.55330287 729 184 C728.33838867 184.2170459 727.67677734 184.4340918 726.99511719 184.65771484 C700.85958491 193.35396228 676.61978863 207.28405363 654.875 224.04296875 C648.82745764 228.69669367 642.54677166 233.02373853 636.29199219 237.39208984 C633.85616574 239.10090461 631.43145779 240.82473891 629.0078125 242.55078125 C619.24619694 249.48345585 609.46432414 256.17161193 599 262 C598.21544434 262.43940918 597.43088867 262.87881836 596.62255859 263.33154297 C579.865264 272.63330239 562.75086206 279.82885046 544 284 C542.71738281 284.2990625 541.43476562 284.598125 540.11328125 284.90625 C514.9433088 290.13236823 486.97159965 288.03370731 462 283 C461.01193359 282.80696289 460.02386719 282.61392578 459.00585938 282.41503906 C430.08759457 276.60275416 401.80704325 266.13522234 375 254 C373.92073242 253.5153125 372.84146484 253.030625 371.72949219 252.53125 C349.58060203 242.55743139 328.05298999 231.7896873 306.98583984 219.70019531 C303.93573996 217.96340908 300.8714126 216.254887 297.80078125 214.5546875 C268.79398588 198.49260816 240.84617058 180.69527456 213.15625 162.47265625 C191.37959485 148.18469505 168.98208681 135.04807982 146.07714844 122.66552734 C143.5059547 121.27385139 140.94260009 119.86950832 138.3828125 118.45703125 C126.41760613 111.91303837 114.00089377 106.28507562 101.59472656 100.63769531 C99.28747287 99.5865504 96.98197168 98.53154533 94.67871094 97.47167969 C18.03262942 62.23076512 -64.07662269 39.59236716 -237 18 C-238.23076263 17.93804947 -238.23076263 17.93804947 -239.48638916 17.87484741 C-255.36906012 17.08990184 -271.22392465 16.79712949 -287.125 16.8125 C-288.29498535 16.81310425 -289.4649707 16.8137085 -290.67041016 16.81433105 C-320.89568806 16.85636186 -350.70758882 18.44071111 -380.73802185 21.84951782 C-382.1931841 22.01281476 -383.64897025 22.17065959 -385.10536194 22.32260132 C-388.1718011 22.64646801 -391.17064815 23.03429393 -394.19506836 23.64208984 C-398.29525959 24.38589678 -400.779625 24.76302938 -404.39868164 22.50024414 C-406.85323692 20.29600158 -409.01652153 17.98330811 -411.1875 15.5 C-412.67861428 13.88322275 -414.17208286 12.26861344 -415.66796875 10.65625 C-416.39806152 9.85574219 -417.1281543 9.05523437 -417.88037109 8.23046875 C-419.75688694 6.25582595 -421.6634118 4.47904772 -423.73828125 2.71875 C-430.46686552 -3.00233239 -436.52432316 -9.4711919 -442.72753906 -15.74804688 C-450.15558868 -23.34441315 -450.15558868 -23.34441315 -458 -30.5 C-464.63584473 -36.14811941 -470.60716179 -42.55501391 -476.72753906 -48.74804688 C-478.42038232 -50.45917554 -480.11558379 -52.16791073 -481.8125 -53.875 C-482.35253662 -54.41898438 -482.89257324 -54.96296875 -483.44897461 -55.5234375 C-487.01507297 -59.08898698 -490.68949498 -62.45408626 -494.609375 -65.6328125 C-496 -67 -496 -67 -497 -70 C-410.85070265 -82.94878222 -324.80170008 -84.95259072 0 0 Z " fill="#009245" transform="translate(733,81)"/>
<path d="M0 0 C19.19882785 14.84781871 28.98410402 33.45271217 32.3125 57.25 C32.76693063 61.58810903 33.0933304 65.92978783 33.390625 70.28125 C33.47525497 71.50009384 33.55988495 72.71893768 33.64707947 73.97471619 C34.3982348 85.42982341 34.69524628 96.87140475 34.83322144 108.34829712 C34.87676075 111.95849852 34.93063279 115.56843723 34.98657227 119.1784668 C35.10395667 126.86886499 35.20888784 134.55940581 35.3125 142.25 C36.06114377 205.60295461 36.06114377 205.60295461 40.125 268.8125 C40.20898041 269.74729187 40.29296082 270.68208374 40.37948608 271.64520264 C48.35084147 359.834488 70.62604216 444.85178226 127.4140625 514.6640625 C129.33817373 517.03032086 131.22726213 519.41794463 133.0859375 521.8359375 C138.53966846 528.92520363 144.24232219 535.61945186 150.390625 542.1171875 C152.52302598 544.37423291 154.56800484 546.6898393 156.59375 549.04296875 C160.72251515 553.78574381 165.11515951 558.24461442 169.5625 562.6875 C170.40224365 563.52643799 171.2419873 564.36537598 172.10717773 565.22973633 C177.91629417 570.98166428 183.82009167 576.27709149 190.3125 581.25 C191.08980469 581.89453125 191.86710937 582.5390625 192.66796875 583.203125 C216.08648144 602.61031007 244.01103594 616.19864403 274.3125 620.25 C275.58867188 620.43175781 276.86484375 620.61351562 278.1796875 620.80078125 C285.58845204 621.58709065 293.05797202 621.49041083 300.5 621.5 C301.32678253 621.50233643 302.15356506 621.50467285 303.00540161 621.50708008 C324.83001358 621.52994641 346.56242013 619.91208862 368.3125 618.25 C366.99211371 622.21115887 364.62974718 623.19745085 361.1875 625.1875 C360.53007813 625.57228516 359.87265625 625.95707031 359.1953125 626.35351562 C306.25350711 656.93030651 245.60778192 674.15177813 185.08544922 658.04785156 C150.9241865 648.21874375 118.80846458 626.82225112 96.3125 599.25 C95.59449219 598.41984375 94.87648438 597.5896875 94.13671875 596.734375 C38.42236145 531.68986217 11.01600678 440.46571434 -28.25 194.75 C-28.29336098 193.13671177 -28.33697962 191.52343045 -28.38085938 189.91015625 C-28.48602714 186.02351023 -28.58776474 182.13678906 -28.6875 178.25 C-30.17310425 177.71560303 -30.17310425 177.71560303 -31.6887207 177.17041016 C-41.00651636 173.77495512 -49.95997423 169.9858647 -58.875 165.625 C-59.49280334 165.32452759 -60.11060669 165.02405518 -60.74713135 164.71447754 C-127.88029859 132.01116672 -127.88029859 132.01116672 -141.0625 103.25 C-144.28254865 87.7937665 -136.87504198 73.03943752 -128.80859375 60.27734375 C-106.95891877 29.3046312 -75.30380071 2.57186996 -38.20703125 -7.41796875 C-24.09613282 -9.27754451 -11.8761798 -8.23069487 0 0 Z M-60.6875 49.25 C-66.90968 55.8842449 -71.52413304 62.26261509 -72.1875 71.5 C-71.44859394 90.16540972 -53.33007094 106.41734376 -40.6875 118.25 C-35.76368204 123.06289023 -35.76368204 123.06289023 -29.6875 125.25 C-29.37055627 123.45911408 -29.05923909 121.66723237 -28.75 119.875 C-28.57597656 118.87726563 -28.40195312 117.87953125 -28.22265625 116.8515625 C-24.07180209 88.91661699 -24.66466391 59.4336948 -35.6875 33.25 C-44.157497 33.25 -54.82542176 43.74755846 -60.6875 49.25 Z " fill="#009245" transform="translate(716.6875,823.75)"/>
<path d="M0 0 C5.98148956 5.54364308 12.26326189 11.50816486 16.40332031 18.58984375 C16.40332031 19.24984375 16.40332031 19.90984375 16.40332031 20.58984375 C15.24316406 20.37328125 14.08300781 20.15671875 12.88769531 19.93359375 C-17.79225381 14.37878337 -45.6149923 21.74485948 -71.25561523 39.32983398 C-76.95772261 43.36944636 -82.25742364 47.74433281 -87.37011719 52.515625 C-89.39620465 54.40308543 -91.47564874 56.18605086 -93.59667969 57.96484375 C-108.12077179 70.72053342 -119.25524381 87.20944222 -129.75195312 103.28271484 C-139.8767121 118.77485195 -139.8767121 118.77485195 -144.78417969 121.52734375 C-145.76451172 122.09775391 -145.76451172 122.09775391 -146.76464844 122.6796875 C-152.6686508 125.61280595 -159.63010787 125.50263508 -165.84667969 123.58984375 C-171.51025174 119.47088225 -175.31064943 114.18741338 -178.97167969 108.27734375 C-200.21150509 74.1150582 -235.8892233 54.61549534 -274.01513672 45.18847656 C-278.18906263 44.2205868 -282.38737266 43.38801461 -286.59667969 42.58984375 C-286.59667969 41.92984375 -286.59667969 41.26984375 -286.59667969 40.58984375 C-283.78548665 39.93784105 -280.97292937 39.29314254 -278.15917969 38.65234375 C-276.98452148 38.37874023 -276.98452148 38.37874023 -275.78613281 38.09960938 C-247.89148444 31.78600583 -216.62353422 34.71953547 -191.99194336 49.85449219 C-182.97200293 55.72861527 -175.41489005 63.04469003 -168.90917969 71.58984375 C-164.86556233 76.71472143 -161.05699909 79.37526182 -154.59667969 80.58984375 C-148.79370361 80.9731596 -143.26517055 78.98767681 -138.59667969 75.58984375 C-133.74604836 70.56149532 -130.21714097 64.49335978 -126.53027344 58.59765625 C-107.8098749 29.4770363 -82.39412283 -3.75642172 -47.51074219 -13.25 C-29.92987248 -16.78001715 -13.35652753 -11.7962237 0 0 Z " fill="#009245" transform="translate(1360.5966796875,117.41015625)"/>
<path d="M0 0 C5.27762282 4.40056471 9.83337689 9.43008921 13.6730957 15.14501953 C13.6730957 15.80501953 13.6730957 16.46501953 13.6730957 17.14501953 C12.2809082 16.9071875 12.2809082 16.9071875 10.8605957 16.66455078 C-14.23741011 13.11781954 -37.20665557 19.41387841 -57.50195312 34.36230469 C-62.71642611 38.33054666 -67.59645011 42.61133965 -72.3269043 47.14501953 C-73.11194336 47.86689453 -73.89698242 48.58876953 -74.70581055 49.33251953 C-84.22135973 58.37458232 -91.91301915 69.10531305 -99.3269043 79.89501953 C-104.16442929 86.85116861 -109.23556192 91.34063382 -117.3269043 94.14501953 C-123.54409188 95.14667753 -129.0729932 94.6556772 -134.5612793 91.46533203 C-138.37565314 88.61299053 -141.01917646 84.91130129 -143.83081055 81.11376953 C-152.41148428 69.70043965 -162.17538343 60.62934726 -174.3269043 53.14501953 C-175.16680908 52.6272998 -175.16680908 52.6272998 -176.02368164 52.09912109 C-190.73355788 43.21060013 -207.47156055 38.11949196 -224.3269043 35.14501953 C-224.3269043 34.48501953 -224.3269043 33.82501953 -224.3269043 33.14501953 C-222.49521111 32.65962084 -220.66144371 32.18204767 -218.8269043 31.70751953 C-217.8059668 31.44068359 -216.7850293 31.17384766 -215.7331543 30.89892578 C-193.49017834 25.97588179 -168.54885514 28.55307104 -149.1394043 40.83251953 C-144.0413444 44.37694903 -139.86117013 48.47450107 -135.5690918 52.93798828 C-130.82960542 57.60316216 -126.0827108 59.91206069 -119.3269043 60.14501953 C-112.35193762 59.55221043 -107.27960627 57.06818253 -102.3269043 52.14501953 C-99.453895 48.61419794 -96.89116372 44.90359157 -94.3269043 41.14501953 C-80.14182803 21.15054821 -61.29062459 -4.47942737 -35.50268555 -9.60498047 C-21.66712925 -11.19470328 -10.97438918 -8.65203519 0 0 Z " fill="#009245" transform="translate(1111.326904296875,63.85498046875)"/>
<path d="M0 0 C1 1 1 1 1.08984375 2.72265625 C0.30834818 14.72562666 -4.95913857 28.98698524 -13 38 C-18.18667715 41.42861634 -23.72862173 41.90785602 -29.75 42.75 C-43.14452007 44.82801878 -56.03281239 48.07802355 -69 52 C-70.64718018 52.49765869 -70.64718018 52.49765869 -72.32763672 53.00537109 C-94.16090237 59.75579878 -114.69885845 69.18488537 -135.3895874 78.78924561 C-138.83527269 80.38741388 -142.2843626 81.97816041 -145.7333374 83.56921387 C-155.12169358 87.90127124 -164.49925813 92.2563771 -173.87451172 96.61669922 C-187.16344362 102.79686686 -200.45889724 108.96232654 -213.78320312 115.06591797 C-216.45134477 116.28819895 -219.11684601 117.51586271 -221.77929688 118.75048828 C-224.97047431 120.22566372 -228.170358 121.67936697 -231.375 123.125 C-232.24721191 123.53306885 -233.11942383 123.9411377 -234.01806641 124.36157227 C-239.38665847 126.74326127 -244.11459072 127.83038756 -250 127 C-252.96912882 125.61019502 -254.69657028 124.30342972 -257 122 C-257 120.68 -257 119.36 -257 118 C-256.32984863 117.68998047 -255.65969727 117.37996094 -254.96923828 117.06054688 C-237.13084561 108.8038679 -219.33077874 100.46817342 -201.5511322 92.08581543 C-196.47026614 89.69100825 -191.38623493 87.30301626 -186.30078125 84.91796875 C-171.66902538 78.05291333 -157.07247974 71.12519282 -142.53198242 64.06884766 C-134.55985168 60.20951086 -126.54541757 56.45380382 -118.5 52.75 C-107.42521695 47.64908429 -96.45288609 42.35695295 -85.5 37 C-73.44545317 31.1042352 -61.35476158 25.31992661 -49.16162109 19.71557617 C-43.09257153 16.91985704 -37.05062212 14.07699643 -31.0390625 11.16015625 C-30.37521545 10.8381424 -29.71136841 10.51612854 -29.02740479 10.18435669 C-25.81921679 8.62621599 -22.61400524 7.0622386 -19.41210938 5.49121094 C-17.69604492 4.65444824 -17.69604492 4.65444824 -15.9453125 3.80078125 C-14.94000488 3.30747314 -13.93469727 2.81416504 -12.89892578 2.3059082 C-4.08538488 -1.66441606 -4.08538488 -1.66441606 0 0 Z " fill="#009245" transform="translate(547,476)"/>
<path d="M0 0 C5.50224728 0.6226299 10.48508884 1.93846702 15.7421875 3.65234375 C16.55116486 3.91253799 17.36014221 4.17273224 18.19363403 4.44081116 C19.89043952 4.98850018 21.58630167 5.53911962 23.28125 6.0925293 C25.88493266 6.94073578 28.49294446 7.7745351 31.1015625 8.60742188 C32.75288332 9.1423682 34.40393512 9.67814588 36.0546875 10.21484375 C36.83689667 10.46386948 37.61910583 10.7128952 38.42501831 10.96946716 C40.30322669 11.58900857 42.15507067 12.28744541 44 13 C45 15 45 15 44.44140625 17.1640625 C44.15136719 17.97617187 43.86132812 18.78828125 43.5625 19.625 C43.27503906 20.44226563 42.98757813 21.25953125 42.69140625 22.1015625 C42.46324219 22.72804688 42.23507812 23.35453125 42 24 C42.85722656 24.845625 43.71445312 25.69125 44.59765625 26.5625 C55.29287148 37.1559604 55.29287148 37.1559604 60.0703125 42.7890625 C62.21099145 45.24174324 64.42811036 47.61054567 66.65698242 49.98291016 C72.72433446 56.44429088 78.51486303 63.03053385 84 70 C84.82242188 71.02738281 85.64484375 72.05476563 86.4921875 73.11328125 C103.51201094 94.5934499 103.51201094 94.5934499 103.33984375 105 C102.73510176 108.55894135 100.83297349 109.95061492 98 112 C92.28688987 113.98625328 86.84814836 114.359805 80.87304688 114.47851562 C76.21863705 114.66183052 73.01251268 115.65258619 69 118 C68.53195561 123.20987113 69.60248714 125.49648371 72.8125 129.5625 C79.79387075 138.52764823 79.79387075 138.52764823 80.4375 143.125 C80 146 80 146 78.3125 147.8125 C68.24840296 152.98054983 52.94323628 150.21017002 42 150 C40.93233398 149.98163086 39.86466797 149.96326172 38.76464844 149.94433594 C28.51513667 149.67719261 20.32977701 149.37994795 12.6796875 141.83984375 C11.79539062 140.90269531 10.91109375 139.96554687 10 139 C8.10055217 137.19962222 6.1759671 135.42864749 4.24951172 133.65722656 C2.34304068 131.89833826 0.4591159 130.11808415 -1.421875 128.33203125 C-4.85059908 125.10082738 -8.40139133 122.04036297 -12 119 C-8.52863235 117.84287745 -7.97005356 118.14609837 -4.7109375 119.4765625 C-3.86015625 119.81550537 -3.009375 120.15444824 -2.1328125 120.50366211 C-0.76769531 121.05872437 -0.76769531 121.05872437 0.625 121.625 C22.16408162 131.00616399 22.16408162 131.00616399 44.734375 131.12890625 C47.12361089 130.08808037 47.12361089 130.08808037 49 128 C49.49940177 124.74846022 49.28429566 123.40919255 47.390625 120.68359375 C46.68421875 119.94238281 45.9778125 119.20117188 45.25 118.4375 C44.55390625 117.69371094 43.8578125 116.94992187 43.140625 116.18359375 C41.71294299 114.72725389 40.26203556 113.29332734 38.7890625 111.8828125 C36.60491527 109.58421214 36.16133157 108.1459656 36 105 C38 102 38 102 40.6875 101.375 C41.780625 101.25125 42.87375 101.1275 44 101 C54.19120116 99.60978114 62.57031023 97.11365379 71 91 C72.78504412 87.42991176 71.88305399 83.7390071 71 80 C65.99938473 67.75775298 56.43885674 57.28797425 47.51953125 47.73046875 C45.60020956 45.65045966 43.75288251 43.54735356 41.9140625 41.3984375 C37.5262625 36.36563386 32.81325575 31.66307128 28.0847168 26.9543457 C26.56508332 25.4400742 25.05087483 23.9205257 23.53710938 22.40039062 C18.19893757 17.05840373 12.78265615 11.86433485 7 7 C4.6468301 5.01985571 2.31483323 3.02547907 0 1 C0 0.67 0 0.34 0 0 Z " fill="#009245" transform="translate(898,401)"/>
<path d="M0 0 C0.64582031 0.33773438 1.29164062 0.67546875 1.95703125 1.0234375 C8.09162663 4.79240459 11.76121913 11.28365739 14 18 C15.5318103 38.54814107 9.91370027 54.88603537 -3.4375 70.75 C-10.94295446 79.4192187 -19.00278203 86.88066901 -28 94 C-28.96550781 94.78246094 -29.93101563 95.56492187 -30.92578125 96.37109375 C-43.52438137 106.37633527 -57.16400745 114.67693097 -71.375 122.1875 C-72.70337891 122.89217407 -72.70337891 122.89217407 -74.05859375 123.61108398 C-75.30962891 124.25799194 -75.30962891 124.25799194 -76.5859375 124.91796875 C-77.3186084 125.29719482 -78.0512793 125.6764209 -78.80615234 126.06713867 C-81.18812702 127.07999481 -83.45232284 127.57631933 -86 128 C-85.63546755 125.53169656 -85.42052489 124.33235347 -83.42456055 122.75488281 C-82.75207275 122.40780273 -82.07958496 122.06072266 -81.38671875 121.703125 C-80.26559692 121.10757813 -80.26559692 121.10757813 -79.12182617 120.5 C-78.31849854 120.0875 -77.5151709 119.675 -76.6875 119.25 C-75.02926081 118.36308414 -73.37300928 117.47244217 -71.71875 116.578125 C-70.50251953 115.92166992 -70.50251953 115.92166992 -69.26171875 115.25195312 C-46.70182365 102.76413554 -19.11342775 81.32304025 -10 56.25 C-9.62080834 54.84491309 -9.2869231 53.42679034 -9 52 C-8.83757812 51.20207031 -8.67515625 50.40414062 -8.5078125 49.58203125 C-7.42261945 42.43968927 -8.44440578 36.10748073 -12.29296875 29.921875 C-16.17524896 24.96754422 -20.26729821 22.6473243 -26.41015625 21.58203125 C-36.02460468 20.86534241 -44.46382951 24.66084881 -53.28417969 27.98583984 C-57.85134398 29.69134151 -62.45065463 31.29504288 -67.0625 32.875 C-67.89386475 33.172854 -68.72522949 33.47070801 -69.58178711 33.77758789 C-78.96393226 36.98837475 -87.81778317 38.35796619 -97 34 C-102.2374606 31.03539966 -106.06169455 27.81491635 -108 22 C-108.27585963 17.72417566 -108.38802416 14.98027156 -106.8125 11 C-105 9 -105 9 -102.75 8.4375 C-100 9 -100 9 -96.9375 11 C-91.29228279 14.43162989 -84.33846168 13.73778467 -78.08129883 12.35498047 C-75.16123625 11.47038733 -72.30347997 10.48385172 -69.4375 9.4375 C-67.88603271 8.89766479 -67.88603271 8.89766479 -66.30322266 8.34692383 C-60.58783795 6.34376985 -54.91708909 4.22710516 -49.25292969 2.08422852 C-32.8717644 -4.09318628 -16.4563807 -8.68613272 0 0 Z " fill="#009245" transform="translate(1339,422)"/>
<path d="M0 0 C-0.09697237 4.72740313 -0.73618119 7.14974868 -4.0625 10.578125 C-5.36199497 11.81588228 -6.6752559 13.03930461 -8 14.25 C-9.38388012 15.57168692 -10.76409683 16.89722029 -12.140625 18.2265625 C-13.14319336 19.19190918 -13.14319336 19.19190918 -14.16601562 20.17675781 C-17.33445192 23.32663564 -20.07806778 26.77061427 -22.8359375 30.27734375 C-24.81884924 32.7720901 -26.87994597 35.17812171 -28.9765625 37.57739258 C-39.18017009 49.32543588 -47.51972855 61.84514086 -54 76 C-52.96875 75.505 -51.9375 75.01 -50.875 74.5 C-44.18255207 72.0111715 -36.32686136 71.76185198 -29.4609375 73.7265625 C-25.26792842 75.65817342 -22.52084599 78.06748026 -20 82 C-17.07687254 90.76938238 -19.54815698 99.72168621 -23 108 C-29.12201916 118.98863692 -37.78242519 127.80446366 -49.9609375 131.61328125 C-55.46598977 132.65734289 -61.08942872 132.67223804 -66.375 130.8125 C-72.65722648 126.47477219 -76.5860051 121.24198471 -79 114 C-81.73268287 86.43894132 -63.87463141 60.63495848 -47.375 40.125 C-43.7618457 35.82393198 -40.04055293 31.62541016 -36.25390625 27.4765625 C-34.7257804 25.79747795 -33.21314142 24.10419177 -31.71484375 22.3984375 C-27.11071294 17.17041933 -22.44154521 12.35519356 -17 8 C-16.09765625 7.27167969 -15.1953125 6.54335937 -14.265625 5.79296875 C-12.83476563 4.68888672 -12.83476563 4.68888672 -11.375 3.5625 C-10.49585938 2.88316406 -9.61671875 2.20382812 -8.7109375 1.50390625 C-5.55633865 -0.24612337 -3.55277443 -0.29693276 0 0 Z " fill="#009245" transform="translate(885,1021)"/>
<path d="M0 0 C3.30599647 1.14352772 3.97936459 1.83883944 5.77734375 4.75390625 C9.20531688 9.56227124 13.24315808 12.94078485 17.83984375 16.56640625 C36.70488643 31.53227154 36.70488643 31.53227154 38.27734375 41.34375 C38.9679011 55.00383749 30.81582353 66.8022874 22.08984375 76.56640625 C20.05988689 78.75009478 18.01043818 80.89581182 15.90234375 83.00390625 C14.91234375 83.00390625 13.92234375 83.00390625 12.90234375 83.00390625 C11.68105947 81.31033656 10.46604234 79.61149021 9.29931641 77.87988281 C7.16408326 75.01250576 4.44023978 72.98061457 1.58984375 70.87890625 C0.35580416 69.93746368 -0.87722612 68.99469701 -2.109375 68.05078125 C-2.75438965 67.56029297 -3.3994043 67.06980469 -4.06396484 66.56445312 C-7.65941938 63.80549209 -11.19364877 60.97206708 -14.72265625 58.12890625 C-15.39723877 57.59378418 -16.07182129 57.05866211 -16.7668457 56.50732422 C-21.22340974 52.91392034 -25.23573007 49.58968479 -27.09765625 44.00390625 C-27.5887092 37.64039814 -26.54022267 33.69657533 -23.53515625 28.12890625 C-23.17091553 27.43200684 -22.8066748 26.73510742 -22.43139648 26.01708984 C-19.41096416 20.34926403 -16.0959162 15.03968935 -12.09765625 10.00390625 C-10.99550781 8.58658203 -10.99550781 8.58658203 -9.87109375 7.140625 C-9.10023438 6.20863281 -8.329375 5.27664063 -7.53515625 4.31640625 C-6.83261719 3.46691406 -6.13007812 2.61742187 -5.40625 1.7421875 C-3.09765625 0.00390625 -3.09765625 0.00390625 0 0 Z " fill="#009245" transform="translate(833.09765625,1167.99609375)"/>
</svg>
